<svg width="13" height="17" viewBox="0 0 13 17" fill="none" xmlns="http://www.w3.org/2000/svg">
<path fill-rule="evenodd" clip-rule="evenodd" d="M10.6344 0C10.704 2.20488 8.91045 3.73452 7.11904 3.63859C6.82385 1.87902 8.91023 0 10.6344 0ZM0 9.02691C0 11.7123 1.9512 16.9851 4.31005 17H4.32547C4.91188 17 5.42888 16.7887 5.88582 16.602L5.88985 16.6003C6.22494 16.4628 6.54146 16.3332 6.79177 16.3332C7.28558 16.3332 7.58442 16.4722 7.93085 16.6336L7.93101 16.6336C8.27334 16.793 8.66146 16.9737 9.2105 16.9737C11.4546 16.9737 13 12.4209 13 12.2088C13 11.8847 12.7746 11.7361 12.5563 11.5924L12.5552 11.5916L12.5545 11.5912C12.0591 11.2648 11.0293 10.5863 11.0293 8.82335C11.0293 7.33438 11.9392 6.5826 12.438 6.17043L12.4382 6.17027L12.7873 5.88177L12.5447 5.48256C11.5091 3.7794 9.78636 3.64286 9.2182 3.64286H9.21369C8.45279 3.64286 7.79938 3.92736 7.27428 4.15627L7.2637 4.16086C7.02012 4.26647 6.74749 4.38468 6.63083 4.38468C6.43312 4.38468 6.07763 4.24166 5.73389 4.10312C5.24235 3.90451 4.68505 3.68008 4.16314 3.68008C3.00502 3.68008 0 4.6404 0 9.02691Z" fill="white"/>
</svg>
