<svg width="19" height="22" viewBox="0 0 19 22" fill="none" xmlns="http://www.w3.org/2000/svg">
<path fill-rule="evenodd" clip-rule="evenodd" d="M2.57554 21H11.8831C12.7518 21 13.4587 20.2823 13.4587 19.4001V16.0162H13.7263C13.9068 16.0162 14.0641 15.8916 14.1083 15.7141L14.3007 14.9392C14.5124 14.8714 14.7211 14.7829 14.9251 14.6745L15.6038 15.0874C15.7587 15.1815 15.9575 15.1567 16.0852 15.0264L17.0226 14.0705C17.1492 13.9413 17.174 13.7417 17.0828 13.5849L16.6807 12.8932C16.7836 12.6896 16.8693 12.4793 16.9372 12.2641L17.7025 12.0682C17.8773 12.0233 18 11.8635 18 11.6803V10.3246C18 10.1414 17.8775 9.98177 17.7027 9.93685L16.942 9.74138C16.8726 9.51695 16.7868 9.30292 16.6855 9.10117L17.0855 8.42188C17.178 8.26469 17.1536 8.0635 17.0259 7.93383L16.0846 6.97783C15.9571 6.84832 15.7596 6.82332 15.6042 6.91728L14.929 7.32662C14.729 7.22098 14.5203 7.13311 14.3051 7.06355L14.1123 6.28703C14.0683 6.10931 13.9108 5.98472 13.7304 5.98472H13.4587V2.60088C13.4587 1.93896 13.0606 1.3697 12.495 1.12663C12.3062 1.0452 12.0987 1 11.881 1H2.57553C1.70678 1 1 1.71773 1 2.59992V19.3989C1.00001 20.2823 1.70679 21 2.57554 21ZM13.0646 6.78467H13.4233L13.5964 7.48227C13.6318 7.62483 13.7414 7.73638 13.8818 7.7723C14.1819 7.84946 14.4682 7.97033 14.7331 8.13144C14.8573 8.20724 15.0129 8.20724 15.1375 8.13184L15.7445 7.7639L16.2517 8.27892L15.8934 8.88729C15.8193 9.01304 15.8189 9.17007 15.8926 9.29627C16.0451 9.55814 16.1634 9.85288 16.2438 10.1718C16.2796 10.3138 16.3888 10.4243 16.5288 10.4603L17.2121 10.6358V11.3686L16.5249 11.5446C16.3849 11.5805 16.2755 11.6913 16.2397 11.8334C16.1641 12.1334 16.0457 12.4244 15.8876 12.698C15.8153 12.8232 15.8154 12.9785 15.8882 13.1037L16.2493 13.7251L15.7443 14.2403L15.1339 13.8691C15.009 13.7933 14.8533 13.7931 14.7288 13.8693C14.4546 14.0364 14.1697 14.157 13.882 14.2275C13.7399 14.2624 13.6283 14.3745 13.5926 14.5185L13.4193 15.2163H13.0646H12.7048L12.5284 14.5171C12.4926 14.3751 12.3834 14.2645 12.2434 14.2286C11.9432 14.1513 11.6568 14.0306 11.3923 13.8693C11.2679 13.7931 11.1121 13.7931 10.9877 13.8689L10.3807 14.237L9.87337 13.7218L10.2359 13.1054C10.3103 12.9789 10.3103 12.8209 10.2355 12.6945C10.0826 12.436 9.96491 12.1447 9.8855 11.8293C9.8497 11.6872 9.74028 11.5764 9.6001 11.5405L8.91309 11.3647V10.6358L9.59643 10.4603C9.73642 10.4243 9.84568 10.3138 9.88145 10.1718C9.95991 9.86028 10.0795 9.56577 10.2367 9.29643C10.3101 9.17047 10.3099 9.01384 10.2363 8.88789L9.87703 8.2754L10.3842 7.76038L10.987 8.12756C11.1098 8.20276 11.2631 8.20372 11.387 8.13088C11.6745 7.96173 11.9561 7.84318 12.2474 7.76818C12.3876 7.73226 12.4971 7.62115 12.5325 7.47875L12.7055 6.78467H13.0646ZM2.57536 1.80078C2.14091 1.80078 1.7876 2.15956 1.7876 2.60074V4.01863H12.6686V2.59978C12.6686 2.2694 12.4704 1.98541 12.1885 1.8635C12.0945 1.82318 11.9913 1.80078 11.883 1.80078H2.57536ZM1.7876 4.81885H12.6707V5.98483H12.3989C12.2187 5.98483 12.0614 6.10923 12.0172 6.28658L11.8243 7.05994C11.6143 7.1285 11.4052 7.21677 11.199 7.32401L10.5259 6.91387C10.3709 6.81995 10.1726 6.84435 10.0447 6.97402L9.10325 7.92986C8.97575 8.05913 8.95113 8.25988 9.04326 8.41731L9.44388 9.10028C9.34021 9.30495 9.25308 9.51922 9.18364 9.74129L8.42262 9.93696C8.24782 9.98188 8.12528 10.1415 8.12528 10.3247V11.6765C8.12528 11.8597 8.24798 12.0197 8.42302 12.0644L9.1875 12.2601C9.25655 12.482 9.34194 12.6937 9.44329 12.8933L9.0396 13.5794C8.94708 13.7366 8.97154 13.9378 9.09923 14.0672L10.0407 15.0232C10.1682 15.1529 10.3661 15.1783 10.5211 15.0838L11.1963 14.6743C11.3966 14.7801 11.6056 14.8682 11.8212 14.9379L12.0174 15.7156C12.062 15.8926 12.2191 16.0163 12.3989 16.0163H12.6707V17.1802H1.7876V4.81885ZM12.6686 17.98H1.7876V19.3989C1.7876 19.8401 2.14091 20.1988 2.57536 20.1988H11.8808C12.3153 20.1988 12.6686 19.8401 12.6686 19.3989V17.98Z" fill="#3C3C3C"/>
<path d="M13.4587 16.0162V15.9162H13.3587V16.0162H13.4587ZM14.1083 15.7141L14.2054 15.7383L14.2054 15.7382L14.1083 15.7141ZM14.3007 14.9392L14.2702 14.8439L14.217 14.8609L14.2036 14.9151L14.3007 14.9392ZM14.9251 14.6745L14.9771 14.5891L14.9285 14.5595L14.8782 14.5862L14.9251 14.6745ZM15.6038 15.0874L15.5518 15.1728L15.5519 15.1729L15.6038 15.0874ZM16.0852 15.0264L16.0138 14.9564L16.0138 14.9564L16.0852 15.0264ZM17.0226 14.0705L17.094 14.1405L17.094 14.1405L17.0226 14.0705ZM17.0828 13.5849L16.9964 13.6352L16.9964 13.6352L17.0828 13.5849ZM16.6807 12.8932L16.5914 12.848L16.5669 12.8965L16.5942 12.9434L16.6807 12.8932ZM16.9372 12.2641L16.9124 12.1672L16.8586 12.181L16.8419 12.234L16.9372 12.2641ZM17.7025 12.0682L17.7273 12.1651L17.7274 12.165L17.7025 12.0682ZM17.7027 9.93685L17.6778 10.0337H17.6778L17.7027 9.93685ZM16.942 9.74138L16.8465 9.77094L16.863 9.82433L16.9171 9.83823L16.942 9.74138ZM16.6855 9.10117L16.5993 9.05042L16.5716 9.09738L16.5961 9.14607L16.6855 9.10117ZM17.0855 8.42188L17.1717 8.47263L17.1717 8.47259L17.0855 8.42188ZM17.0259 7.93383L16.9546 8.00399L16.9546 8.00399L17.0259 7.93383ZM16.0846 6.97783L16.0134 7.04799L16.0134 7.04799L16.0846 6.97783ZM15.6042 6.91728L15.5525 6.8317L15.5524 6.83176L15.6042 6.91728ZM14.929 7.32662L14.8823 7.41504L14.9324 7.4415L14.9808 7.41213L14.929 7.32662ZM14.3051 7.06355L14.208 7.08764L14.2214 7.1416L14.2743 7.1587L14.3051 7.06355ZM14.1123 6.28703L14.0153 6.31108L14.0153 6.31111L14.1123 6.28703ZM13.4587 5.98472H13.3587V6.08472H13.4587V5.98472ZM12.495 1.12663L12.4554 1.21846L12.4555 1.21851L12.495 1.12663ZM1 19.3989H0.9H1ZM13.4233 6.78467L13.5204 6.76058L13.5015 6.68467H13.4233V6.78467ZM13.5964 7.48227L13.6935 7.45819L13.6935 7.45819L13.5964 7.48227ZM13.8818 7.7723L13.9067 7.67545L13.9066 7.67542L13.8818 7.7723ZM14.7331 8.13144L14.7851 8.04608L14.785 8.04601L14.7331 8.13144ZM15.1375 8.13184L15.1893 8.21741L15.1894 8.21736L15.1375 8.13184ZM15.7445 7.7639L15.8158 7.69374L15.7603 7.6374L15.6927 7.67839L15.7445 7.7639ZM16.2517 8.27892L16.3378 8.32967L16.3768 8.26348L16.3229 8.20875L16.2517 8.27892ZM15.8934 8.88729L15.8072 8.83654L15.8072 8.83655L15.8934 8.88729ZM15.8926 9.29627L15.979 9.24594L15.9789 9.24586L15.8926 9.29627ZM16.2438 10.1718L16.1468 10.1962L16.1468 10.1962L16.2438 10.1718ZM16.5288 10.4603L16.5537 10.3634L16.5537 10.3634L16.5288 10.4603ZM17.2121 10.6358H17.3121V10.5583L17.237 10.539L17.2121 10.6358ZM17.2121 11.3686L17.2369 11.4655L17.3121 11.4462V11.3686H17.2121ZM16.5249 11.5446L16.5001 11.4477L16.5001 11.4477L16.5249 11.5446ZM16.2397 11.8334L16.3367 11.8579L16.3367 11.8578L16.2397 11.8334ZM15.8876 12.698L15.801 12.648L15.801 12.648L15.8876 12.698ZM15.8882 13.1037L15.8017 13.1539L15.8017 13.1539L15.8882 13.1037ZM16.2493 13.7251L16.3208 13.7951L16.3741 13.7407L16.3358 13.6749L16.2493 13.7251ZM15.7443 14.2403L15.6923 14.3258L15.7602 14.367L15.8157 14.3104L15.7443 14.2403ZM15.1339 13.8691L15.1858 13.7836L15.1858 13.7836L15.1339 13.8691ZM14.7288 13.8693L14.7809 13.9547L14.7811 13.9546L14.7288 13.8693ZM13.882 14.2275L13.8582 14.1303L13.8581 14.1304L13.882 14.2275ZM13.5926 14.5185L13.4955 14.4943L13.4955 14.4944L13.5926 14.5185ZM13.4193 15.2163V15.3163H13.4975L13.5163 15.2404L13.4193 15.2163ZM12.7048 15.2163L12.6078 15.2407L12.6269 15.3163H12.7048V15.2163ZM12.5284 14.5171L12.4314 14.5415L12.4315 14.5416L12.5284 14.5171ZM12.2434 14.2286L12.2184 14.3255L12.2186 14.3255L12.2434 14.2286ZM11.3923 13.8693L11.3401 13.9546L11.3403 13.9547L11.3923 13.8693ZM10.9877 13.8689L11.0396 13.9544L11.0397 13.9543L10.9877 13.8689ZM10.3807 14.237L10.3095 14.3072L10.365 14.3635L10.4326 14.3225L10.3807 14.237ZM9.87337 13.7218L9.78718 13.6711L9.74826 13.7373L9.80212 13.792L9.87337 13.7218ZM10.2359 13.1054L10.1497 13.0547L10.1497 13.0547L10.2359 13.1054ZM10.2355 12.6945L10.1494 12.7454L10.1495 12.7455L10.2355 12.6945ZM9.8855 11.8293L9.98248 11.8049V11.8049L9.8855 11.8293ZM9.6001 11.5405L9.62492 11.4436L9.62488 11.4436L9.6001 11.5405ZM8.91309 11.3647H8.81309V11.4423L8.8883 11.4616L8.91309 11.3647ZM8.91309 10.6358L8.8882 10.539L8.81309 10.5583V10.6358H8.91309ZM9.59643 10.4603L9.57158 10.3634L9.57154 10.3634L9.59643 10.4603ZM9.88145 10.1718L9.97842 10.1962L9.97842 10.1962L9.88145 10.1718ZM10.2367 9.29643L10.3231 9.34682L10.3231 9.34681L10.2367 9.29643ZM10.2363 8.88789L10.3226 8.83741L10.3226 8.83729L10.2363 8.88789ZM9.87703 8.2754L9.80578 8.20523L9.75199 8.25986L9.79078 8.32599L9.87703 8.2754ZM10.3842 7.76038L10.4362 7.67498L10.3685 7.63375L10.3129 7.69022L10.3842 7.76038ZM10.987 8.12756L11.0391 8.04226L11.039 8.04216L10.987 8.12756ZM11.387 8.13088L11.4377 8.21709L11.4377 8.21707L11.387 8.13088ZM12.2474 7.76818L12.2226 7.67131L12.2225 7.67134L12.2474 7.76818ZM12.5325 7.47875L12.4354 7.45456L12.4354 7.45462L12.5325 7.47875ZM12.7055 6.78467V6.68467H12.6274L12.6085 6.76047L12.7055 6.78467ZM1.7876 4.01863H1.6876V4.11863H1.7876V4.01863ZM12.6686 4.01863V4.11863H12.7686V4.01863H12.6686ZM12.1885 1.8635L12.2282 1.77171L12.2279 1.7716L12.1885 1.8635ZM12.6707 4.81885H12.7707V4.71885H12.6707V4.81885ZM1.7876 4.81885V4.71885H1.6876V4.81885H1.7876ZM12.6707 5.98483V6.08483H12.7707V5.98483H12.6707ZM12.0172 6.28658L12.1142 6.31078L12.1142 6.31078L12.0172 6.28658ZM11.8243 7.05994L11.8553 7.155L11.9079 7.13783L11.9213 7.08414L11.8243 7.05994ZM11.199 7.32401L11.147 7.4094L11.1951 7.43874L11.2452 7.41273L11.199 7.32401ZM10.5259 6.91387L10.5779 6.82847L10.5777 6.82834L10.5259 6.91387ZM10.0447 6.97402L9.97351 6.9038L9.97346 6.90385L10.0447 6.97402ZM9.10325 7.92986L9.17445 8.00008L9.17449 8.00003L9.10325 7.92986ZM9.04326 8.41731L8.95695 8.46782L8.95701 8.46791L9.04326 8.41731ZM9.44388 9.10028L9.53309 9.14547L9.55775 9.09677L9.53014 9.04969L9.44388 9.10028ZM9.18364 9.74129L9.20854 9.83814L9.26247 9.82428L9.27909 9.77114L9.18364 9.74129ZM8.42262 9.93696L8.44751 10.0338L8.44752 10.0338L8.42262 9.93696ZM8.42302 12.0644L8.44781 11.9675L8.44777 11.9675L8.42302 12.0644ZM9.1875 12.2601L9.28298 12.2304L9.26639 12.1771L9.2123 12.1632L9.1875 12.2601ZM9.44329 12.8933L9.52948 12.944L9.55723 12.8968L9.53245 12.848L9.44329 12.8933ZM9.0396 13.5794L9.12578 13.6301L9.12579 13.6301L9.0396 13.5794ZM9.09923 14.0672L9.17049 13.9971L9.17043 13.997L9.09923 14.0672ZM10.0407 15.0232L10.112 14.9531L10.1119 14.9531L10.0407 15.0232ZM10.5211 15.0838L10.4692 14.9983L10.469 14.9984L10.5211 15.0838ZM11.1963 14.6743L11.2431 14.5858L11.193 14.5594L11.1445 14.5888L11.1963 14.6743ZM11.8212 14.9379L11.9182 14.9134L11.9046 14.8598L11.852 14.8427L11.8212 14.9379ZM12.0174 15.7156L12.1144 15.6912L12.1144 15.6911L12.0174 15.7156ZM12.6707 16.0163H12.7707V15.9163H12.6707V16.0163ZM12.6707 17.1802V17.2802H12.7707V17.1802H12.6707ZM1.7876 17.1802H1.6876V17.2802H1.7876V17.1802ZM1.7876 17.98V17.88H1.6876V17.98H1.7876ZM12.6686 17.98H12.7686V17.88H12.6686V17.98ZM11.8831 20.9H2.57554V21.1H11.8831V20.9ZM13.3587 19.4001C13.3587 20.2285 12.6952 20.9 11.8831 20.9V21.1C12.8085 21.1 13.5587 20.336 13.5587 19.4001H13.3587ZM13.3587 16.0162V19.4001H13.5587V16.0162H13.3587ZM13.7263 15.9162H13.4587V16.1162H13.7263V15.9162ZM14.0113 15.69C13.9779 15.8239 13.8598 15.9162 13.7263 15.9162V16.1162C13.9537 16.1162 14.1503 15.9594 14.2054 15.7383L14.0113 15.69ZM14.2036 14.9151L14.0113 15.69L14.2054 15.7382L14.3977 14.9633L14.2036 14.9151ZM14.8782 14.5862C14.6792 14.6919 14.476 14.778 14.2702 14.8439L14.3312 15.0344C14.5488 14.9647 14.7629 14.8739 14.972 14.7628L14.8782 14.5862ZM15.6558 15.002L14.9771 14.5891L14.8731 14.7599L15.5518 15.1728L15.6558 15.002ZM16.0138 14.9564C15.9186 15.0536 15.7708 15.0719 15.6558 15.002L15.5519 15.1729C15.7465 15.2912 15.9965 15.2598 16.1566 15.0964L16.0138 14.9564ZM16.9512 14.0004L16.0138 14.9564L16.1566 15.0965L17.094 14.1405L16.9512 14.0004ZM16.9964 13.6352C17.065 13.7532 17.0461 13.9036 16.9512 14.0005L17.094 14.1405C17.2522 13.9791 17.283 13.7303 17.1693 13.5347L16.9964 13.6352ZM16.5942 12.9434L16.9964 13.6352L17.1693 13.5347L16.7671 12.8429L16.5942 12.9434ZM16.8419 12.234C16.7756 12.444 16.6919 12.6493 16.5914 12.848L16.7699 12.9383C16.8752 12.73 16.963 12.5146 17.0326 12.2942L16.8419 12.234ZM17.6777 11.9713L16.9124 12.1672L16.962 12.361L17.7273 12.1651L17.6777 11.9713ZM17.9 11.6803C17.9 11.8187 17.8074 11.938 17.6776 11.9713L17.7274 12.165C17.9472 12.1086 18.1 11.9083 18.1 11.6803H17.9ZM17.9 10.3246V11.6803H18.1V10.3246H17.9ZM17.6778 10.0337C17.8075 10.067 17.9 10.1861 17.9 10.3246H18.1C18.1 10.0966 17.9475 9.8965 17.7276 9.84L17.6778 10.0337ZM16.9171 9.83823L17.6778 10.0337L17.7276 9.84L16.9669 9.64453L16.9171 9.83823ZM16.5961 9.14607C16.6949 9.34269 16.7786 9.55156 16.8465 9.77094L17.0376 9.71182C16.9666 9.48234 16.8788 9.26316 16.7748 9.05627L16.5961 9.14607ZM16.9994 8.37114L16.5993 9.05042L16.7716 9.15192L17.1717 8.47263L16.9994 8.37114ZM16.9546 8.00399C17.0504 8.10121 17.069 8.25278 16.9993 8.37117L17.1717 8.47259C17.287 8.27661 17.2568 8.02579 17.0971 7.86366L16.9546 8.00399ZM16.0134 7.04799L16.9546 8.00399L17.0971 7.86367L16.1559 6.90767L16.0134 7.04799ZM15.6559 7.00285C15.7716 6.93292 15.9183 6.95138 16.0134 7.04799L16.1559 6.90768C15.996 6.74526 15.7476 6.71372 15.5525 6.8317L15.6559 7.00285ZM14.9808 7.41213L15.6561 7.00279L15.5524 6.83176L14.8771 7.2411L14.9808 7.41213ZM14.2743 7.1587C14.4841 7.2265 14.6874 7.31213 14.8823 7.41504L14.9757 7.23819C14.7705 7.12983 14.5565 7.03972 14.3358 6.9684L14.2743 7.1587ZM14.0153 6.31111L14.208 7.08764L14.4021 7.03946L14.2094 6.26294L14.0153 6.31111ZM13.7304 6.08472C13.8639 6.08472 13.9821 6.17708 14.0153 6.31108L14.2094 6.26297C14.1545 6.04155 13.9577 5.88472 13.7304 5.88472V6.08472ZM13.4587 6.08472H13.7304V5.88472H13.4587V6.08472ZM13.3587 2.60088V5.98472H13.5587V2.60088H13.3587ZM12.4555 1.21851C12.9852 1.44614 13.3587 1.97977 13.3587 2.60088H13.5587C13.5587 1.89814 13.1361 1.29327 12.5345 1.03476L12.4555 1.21851ZM11.881 1.1C12.0847 1.1 12.2788 1.14227 12.4554 1.21846L12.5346 1.03481C12.3336 0.948121 12.1127 0.9 11.881 0.9V1.1ZM2.57553 1.1H11.881V0.9H2.57553V1.1ZM1.1 2.59992C1.1 1.7715 1.76345 1.1 2.57553 1.1V0.9C1.65011 0.9 0.9 1.66395 0.9 2.59992H1.1ZM1.1 19.3989V2.59992H0.9V19.3989H1.1ZM2.57554 20.9C1.76351 20.9 1.10001 20.2285 1.1 19.3989H0.9C0.900008 20.336 1.65007 21.1 2.57554 21.1V20.9ZM13.4233 6.68467H13.0646V6.88467H13.4233V6.68467ZM13.6935 7.45819L13.5204 6.76058L13.3263 6.80875L13.4994 7.50636L13.6935 7.45819ZM13.9066 7.67542C13.8025 7.6488 13.7202 7.56573 13.6935 7.45819L13.4994 7.50636C13.5434 7.68393 13.6803 7.82397 13.8571 7.86918L13.9066 7.67542ZM14.785 8.04601C14.5118 7.87979 14.2163 7.75507 13.9067 7.67545L13.8569 7.86915C14.1474 7.94385 14.4246 8.06087 14.6811 8.21688L14.785 8.04601ZM15.0858 8.04628C14.9929 8.10246 14.8773 8.10233 14.7851 8.04608L14.681 8.21681C14.8372 8.31214 15.0328 8.31202 15.1893 8.21741L15.0858 8.04628ZM15.6927 7.67839L15.0857 8.04633L15.1894 8.21736L15.7963 7.84942L15.6927 7.67839ZM16.3229 8.20875L15.8158 7.69374L15.6733 7.83407L16.1804 8.34908L16.3229 8.20875ZM15.9795 8.93804L16.3378 8.32967L16.1655 8.22817L15.8072 8.83654L15.9795 8.93804ZM15.9789 9.24586C15.9235 9.15095 15.9238 9.03261 15.9795 8.93803L15.8072 8.83655C15.7148 8.99347 15.7143 9.18919 15.8062 9.34668L15.9789 9.24586ZM16.3407 10.1473C16.2582 9.82011 16.1366 9.51654 15.979 9.24594L15.8062 9.34659C15.9536 9.59973 16.0685 9.88565 16.1468 10.1962L16.3407 10.1473ZM16.5537 10.3634C16.4497 10.3367 16.3677 10.2544 16.3407 10.1473L16.1468 10.1962C16.1914 10.3732 16.3279 10.5119 16.504 10.5571L16.5537 10.3634ZM17.237 10.539L16.5537 10.3634L16.5039 10.5571L17.1872 10.7327L17.237 10.539ZM17.3121 11.3686V10.6358H17.1121V11.3686H17.3121ZM16.5498 11.6415L17.2369 11.4655L17.1873 11.2717L16.5001 11.4477L16.5498 11.6415ZM16.3367 11.8578C16.3637 11.7506 16.4459 11.6681 16.5498 11.6415L16.5001 11.4477C16.324 11.4929 16.1873 11.6319 16.1428 11.809L16.3367 11.8578ZM15.9741 12.7481C16.1368 12.4666 16.2588 12.167 16.3367 11.8579L16.1428 11.809C16.0695 12.0998 15.9545 12.3823 15.801 12.648L15.9741 12.7481ZM15.9746 13.0535C15.9199 12.9592 15.9198 12.8422 15.9742 12.748L15.801 12.648C15.7108 12.8042 15.711 12.9977 15.8017 13.1539L15.9746 13.0535ZM16.3358 13.6749L15.9746 13.0534L15.8017 13.1539L16.1629 13.7754L16.3358 13.6749ZM15.8157 14.3104L16.3208 13.7951L16.1779 13.6551L15.6729 14.1703L15.8157 14.3104ZM15.0819 13.9545L15.6923 14.3258L15.7963 14.1549L15.1858 13.7836L15.0819 13.9545ZM14.7811 13.9546C14.8733 13.8981 14.9889 13.8981 15.082 13.9546L15.1858 13.7836C15.0292 13.6885 14.8332 13.6881 14.6766 13.784L14.7811 13.9546ZM13.9058 14.3246C14.2043 14.2514 14.4986 14.1267 14.7809 13.9547L14.6768 13.7839C14.4105 13.9462 14.1351 14.0625 13.8582 14.1303L13.9058 14.3246ZM13.6896 14.5426C13.7166 14.4341 13.8004 14.3505 13.9059 14.3246L13.8581 14.1304C13.6794 14.1743 13.5401 14.3149 13.4955 14.4943L13.6896 14.5426ZM13.5163 15.2404L13.6896 14.5426L13.4955 14.4944L13.3222 15.1922L13.5163 15.2404ZM13.0646 15.3163H13.4193V15.1163H13.0646V15.3163ZM12.7048 15.3163H13.0646V15.1163H12.7048V15.3163ZM12.4315 14.5416L12.6078 15.2407L12.8018 15.1918L12.6254 14.4926L12.4315 14.5416ZM12.2186 14.3255C12.3225 14.3522 12.4045 14.4345 12.4314 14.5415L12.6254 14.4927C12.5808 14.3157 12.4443 14.1769 12.2682 14.1318L12.2186 14.3255ZM11.3403 13.9547C11.6132 14.1212 11.9088 14.2457 12.2184 14.3255L12.2684 14.1318C11.9776 14.0569 11.7004 13.94 11.4444 13.7839L11.3403 13.9547ZM11.0397 13.9543C11.1322 13.898 11.2477 13.898 11.3401 13.9546L11.4446 13.784C11.2881 13.6882 11.0921 13.6882 10.9357 13.7835L11.0397 13.9543ZM10.4326 14.3225L11.0396 13.9544L10.9358 13.7834L10.3289 14.1515L10.4326 14.3225ZM9.80212 13.792L10.3095 14.3072L10.452 14.1669L9.94462 13.6516L9.80212 13.792ZM10.1497 13.0547L9.78718 13.6711L9.95957 13.7725L10.3221 13.1561L10.1497 13.0547ZM10.1495 12.7455C10.2057 12.8404 10.2058 12.9595 10.1497 13.0547L10.3221 13.1561C10.4149 12.9983 10.415 12.8014 10.3215 12.6436L10.1495 12.7455ZM9.78853 11.8538C9.87008 12.1777 9.99128 12.4779 10.1494 12.7454L10.3216 12.6437C10.174 12.394 10.0597 12.1118 9.98248 11.8049L9.78853 11.8538ZM9.57528 11.6374C9.67935 11.664 9.76153 11.7465 9.78853 11.8538L9.98248 11.8049C9.93787 11.6278 9.8012 11.4888 9.62492 11.4436L9.57528 11.6374ZM8.8883 11.4616L9.57531 11.6374L9.62488 11.4436L8.93788 11.2678L8.8883 11.4616ZM8.81309 10.6358V11.3647H9.01309V10.6358H8.81309ZM9.57154 10.3634L8.8882 10.539L8.93797 10.7327L9.62132 10.5571L9.57154 10.3634ZM9.78448 10.1474C9.75752 10.2544 9.6755 10.3367 9.57158 10.3634L9.62129 10.5571C9.79733 10.5119 9.93384 10.3732 9.97842 10.1962L9.78448 10.1474ZM10.1503 9.24603C9.98829 9.52371 9.86517 9.82699 9.78448 10.1474L9.97842 10.1962C10.0546 9.89357 10.1708 9.60784 10.3231 9.34682L10.1503 9.24603ZM10.15 8.93837C10.2054 9.03324 10.2056 9.15132 10.1503 9.24605L10.3231 9.34681C10.4147 9.18962 10.4145 8.99445 10.3226 8.83741L10.15 8.93837ZM9.79078 8.32599L10.15 8.93848L10.3226 8.83729L9.96329 8.2248L9.79078 8.32599ZM10.3129 7.69022L9.80578 8.20523L9.94829 8.34556L10.4554 7.83055L10.3129 7.69022ZM11.039 8.04216L10.4362 7.67498L10.3322 7.84578L10.9349 8.21297L11.039 8.04216ZM11.3363 8.04468C11.2441 8.09888 11.1304 8.0981 11.0391 8.04226L10.9348 8.21286C11.0893 8.30742 11.2821 8.30855 11.4377 8.21709L11.3363 8.04468ZM12.2225 7.67134C11.9212 7.74889 11.631 7.87129 11.3363 8.04469L11.4377 8.21707C11.718 8.05217 11.9909 7.93746 12.2723 7.86502L12.2225 7.67134ZM12.4354 7.45462C12.4087 7.56196 12.3266 7.64467 12.2226 7.67131L12.2722 7.86505C12.4487 7.81985 12.5854 7.68034 12.6295 7.50289L12.4354 7.45462ZM12.6085 6.76047L12.4354 7.45456L12.6295 7.50295L12.8026 6.80886L12.6085 6.76047ZM13.0646 6.68467H12.7055V6.88467H13.0646V6.68467ZM1.8876 2.60074C1.8876 2.21334 2.19758 1.90078 2.57536 1.90078V1.70078C2.08424 1.70078 1.6876 2.10579 1.6876 2.60074H1.8876ZM1.8876 4.01863V2.60074H1.6876V4.01863H1.8876ZM12.6686 3.91863H1.7876V4.11863H12.6686V3.91863ZM12.5686 2.59978V4.01863H12.7686V2.59978H12.5686ZM12.1488 1.95528C12.3949 2.06171 12.5686 2.31014 12.5686 2.59978H12.7686C12.7686 2.22866 12.5459 1.90911 12.2282 1.77171L12.1488 1.95528ZM11.883 1.90078C11.9774 1.90078 12.0672 1.92028 12.1491 1.9554L12.2279 1.7716C12.1218 1.72608 12.0052 1.70078 11.883 1.70078V1.90078ZM2.57536 1.90078H11.883V1.70078H2.57536V1.90078ZM12.6707 4.71885H1.7876V4.91885H12.6707V4.71885ZM12.7707 5.98483V4.81885H12.5707V5.98483H12.7707ZM12.3989 6.08483H12.6707V5.88483H12.3989V6.08483ZM12.1142 6.31078C12.1476 6.17702 12.2656 6.08483 12.3989 6.08483V5.88483C12.1719 5.88483 11.9753 6.04143 11.9202 6.26238L12.1142 6.31078ZM11.9213 7.08414L12.1142 6.31078L11.9202 6.26237L11.7272 7.03574L11.9213 7.08414ZM11.2452 7.41273C11.4468 7.30789 11.6507 7.22178 11.8553 7.155L11.7932 6.96488C11.5778 7.03522 11.3637 7.12566 11.1529 7.23529L11.2452 7.41273ZM10.4738 6.99926L11.147 7.4094L11.2511 7.23861L10.5779 6.82847L10.4738 6.99926ZM10.1159 7.04424C10.2113 6.94754 10.3587 6.92948 10.4741 6.99939L10.5777 6.82834C10.3831 6.71043 10.1339 6.74117 9.97351 6.9038L10.1159 7.04424ZM9.17449 8.00003L10.116 7.0442L9.97346 6.90385L9.03201 7.85969L9.17449 8.00003ZM9.12957 8.36681C9.0601 8.24809 9.07896 8.09689 9.17445 8.00008L9.03205 7.85964C8.87254 8.02137 8.84217 8.27168 8.95695 8.46782L9.12957 8.36681ZM9.53014 9.04969L9.12952 8.36672L8.95701 8.46791L9.35762 9.15088L9.53014 9.04969ZM9.27909 9.77114C9.34688 9.55432 9.43193 9.34519 9.53309 9.14547L9.35467 9.0551C9.2485 9.26472 9.15928 9.48412 9.0882 9.71145L9.27909 9.77114ZM8.44752 10.0338L9.20854 9.83814L9.15874 9.64444L8.39772 9.84011L8.44752 10.0338ZM8.22528 10.3247C8.22528 10.1862 8.31776 10.0672 8.44751 10.0338L8.39774 9.84011C8.17787 9.8966 8.02528 10.0967 8.02528 10.3247H8.22528ZM8.22528 11.6765V10.3247H8.02528V11.6765H8.22528ZM8.44777 11.9675C8.31795 11.9344 8.22528 11.815 8.22528 11.6765H8.02528C8.02528 11.9044 8.17801 12.105 8.39826 12.1613L8.44777 11.9675ZM9.2123 12.1632L8.44781 11.9675L8.39822 12.1613L9.16271 12.357L9.2123 12.1632ZM9.53245 12.848C9.43377 12.6536 9.35045 12.4471 9.28298 12.2304L9.09202 12.2898C9.16265 12.5168 9.25012 12.7337 9.35413 12.9385L9.53245 12.848ZM9.12579 13.6301L9.52948 12.944L9.3571 12.8426L8.95341 13.5287L9.12579 13.6301ZM9.17043 13.997C9.07477 13.9 9.05609 13.7485 9.12578 13.6301L8.95342 13.5287C8.83806 13.7246 8.86831 13.9755 9.02804 14.1375L9.17043 13.997ZM10.1119 14.9531L9.17049 13.9971L9.02798 14.1374L9.9694 15.0934L10.1119 14.9531ZM10.469 14.9984C10.3541 15.0685 10.2072 15.05 10.112 14.9531L9.96935 15.0933C10.1291 15.2558 10.378 15.2881 10.5731 15.1692L10.469 14.9984ZM11.1445 14.5888L10.4692 14.9983L10.5729 15.1693L11.2482 14.7598L11.1445 14.5888ZM11.852 14.8427C11.6418 14.7748 11.4381 14.689 11.2431 14.5858L11.1496 14.7627C11.355 14.8712 11.5694 14.9615 11.7904 15.033L11.852 14.8427ZM12.1144 15.6911L11.9182 14.9134L11.7242 14.9623L11.9204 15.7401L12.1144 15.6911ZM12.3989 15.9163C12.2659 15.9163 12.148 15.8246 12.1144 15.6912L11.9204 15.74C11.976 15.9605 12.1724 16.1164 12.3989 16.1164V15.9163ZM12.6707 15.9163H12.3989V16.1164H12.6707V15.9163ZM12.7707 17.1802V16.0163H12.5707V17.1802H12.7707ZM1.7876 17.2802H12.6707V17.0802H1.7876V17.2802ZM1.6876 4.81885V17.1802H1.8876V4.81885H1.6876ZM1.7876 18.08H12.6686V17.88H1.7876V18.08ZM1.8876 19.3989V17.98H1.6876V19.3989H1.8876ZM2.57536 20.0988C2.19758 20.0988 1.8876 19.7863 1.8876 19.3989H1.6876C1.6876 19.8938 2.08424 20.2988 2.57536 20.2988V20.0988ZM11.8808 20.0988H2.57536V20.2988H11.8808V20.0988ZM12.5686 19.3989C12.5686 19.7863 12.2586 20.0988 11.8808 20.0988V20.2988C12.372 20.2988 12.7686 19.8938 12.7686 19.3989H12.5686ZM12.5686 17.98V19.3989H12.7686V17.98H12.5686Z" fill="#3C3C3C"/>
<path fill-rule="evenodd" clip-rule="evenodd" d="M13.0019 13C11.9024 13 11.0043 12.1035 11 11.0014C11 9.94291 11.8228 9.06799 12.8729 9.00449C12.9074 9.00055 12.9521 9 13.0019 9C14.1037 9 15 9.89544 15 10.9962C15 12.1011 14.1037 13 13.0019 13ZM12.9791 9.73682C12.9636 9.73682 12.9487 9.737 12.9326 9.73862C12.2548 9.77998 11.7358 10.3319 11.7358 10.9964C11.7385 11.6962 12.3065 12.2636 13.0018 12.2636C13.6977 12.2636 14.2638 11.6951 14.2638 10.9964C14.2638 10.3019 13.6977 9.73682 13.0018 9.73682H12.9791Z" fill="#3C3C3C"/>
<path d="M11 11.0014H10.9L10.9 11.0018L11 11.0014ZM12.8729 9.00449L12.8789 9.10445L12.8843 9.10385L12.8729 9.00449ZM12.9326 9.73862L12.9387 9.83851L12.9426 9.83812L12.9326 9.73862ZM11.7358 10.9964H11.6358L11.6358 10.9968L11.7358 10.9964ZM10.9 11.0018C10.9045 12.1588 11.8471 13.1 13.0019 13.1V12.9C11.9577 12.9 11.1041 12.0482 11.1 11.001L10.9 11.0018ZM12.8669 8.90468C11.7637 8.97138 10.9 9.89029 10.9 11.0014H11.1C11.1 9.99553 11.8819 9.1646 12.8789 9.10431L12.8669 8.90468ZM13.0019 8.9C12.953 8.9 12.9026 8.90045 12.8615 8.90514L12.8843 9.10385C12.9122 9.10066 12.9513 9.1 13.0019 9.1V8.9ZM15.1 10.9962C15.1 9.84012 14.1589 8.9 13.0019 8.9V9.1C14.0486 9.1 14.9 9.95075 14.9 10.9962H15.1ZM13.0019 13.1C14.1592 13.1 15.1 12.1561 15.1 10.9962H14.9C14.9 12.0462 14.0482 12.9 13.0019 12.9V13.1ZM12.9426 9.83812C12.9535 9.83703 12.9642 9.83682 12.9791 9.83682V9.63682C12.9631 9.63682 12.944 9.63697 12.9226 9.63912L12.9426 9.83812ZM11.8358 10.9964C11.8358 10.3855 12.3129 9.87662 12.9387 9.83844L12.9265 9.63881C12.1966 9.68335 11.6358 10.2783 11.6358 10.9964H11.8358ZM13.0018 12.1636C12.362 12.1636 11.8383 11.6411 11.8358 10.996L11.6358 10.9968C11.6387 11.7512 12.2511 12.3636 13.0018 12.3636V12.1636ZM14.1638 10.9964C14.1638 11.6402 13.6421 12.1636 13.0018 12.1636V12.3636C13.7533 12.3636 14.3638 11.7499 14.3638 10.9964H14.1638ZM13.0018 9.83682C13.6426 9.83682 14.1638 10.3573 14.1638 10.9964H14.3638C14.3638 10.2465 13.7527 9.63682 13.0018 9.63682V9.83682ZM12.9791 9.83682H13.0018V9.63682H12.9791V9.83682Z" fill="#3C3C3C"/>
</svg>
