<?xml version="1.0" encoding="UTF-8"?>
<svg width="17px" height="20px" viewBox="0 0 17 20" version="1.1" xmlns="http://www.w3.org/2000/svg" xmlns:xlink="http://www.w3.org/1999/xlink">
    <title>04_Icons/heart/filled</title>
    <g id="App-Design-" stroke="none" stroke-width="1" fill="none" fill-rule="evenodd">
        <g id="09.1_Settings---Notloggedin" transform="translate(-53.000000, -891.000000)" fill="#3C3C3C" fill-rule="nonzero">
            <g id="List/01_Single-Line/Icon-left+right" transform="translate(24.000000, 867.500000)">
                <g id="Asset-1-(2)" transform="translate(29.000000, 23.500000)">
                    <path d="M9.86001455,19.3787636 L1.47388288,19.3787636 C1.464089,19.3709467 1.45325945,19.3645243 1.44170303,19.3596795 C0.450556992,19.1010517 0.000659819224,18.520842 0.000653763361,17.500272 C0.000628867032,13.5412555 0.000626511974,9.58223908 0.000646698186,5.62322262 C0.000646698186,4.32456437 -0.00132499007,3.02590158 0.00161715033,1.72725039 C0.00294893567,1.13941074 0.233884248,0.652435027 0.720704021,0.325103487 C0.943851493,0.175061391 1.22114444,0.105861542 1.47388288,0 L9.86001455,0 C9.87567312,0.0103754853 9.89251954,0.0188355478 9.91019293,0.0251989531 C10.8283244,0.236827668 11.3321945,0.865349098 11.3330797,1.80336755 C11.3338891,2.66095152 11.3339477,3.51853616 11.3332553,4.37612147 L11.3332553,4.57974988 C12.6413693,4.57974988 13.9187997,4.57922201 15.1962301,4.57991137 C16.2766416,4.58049475 16.9987776,5.30010748 16.9992595,6.37873198 C17.0002453,8.58575043 17.0002468,10.7927697 16.9992641,12.9997898 C16.9987892,14.0773849 16.2755293,14.7982204 15.1962316,14.7988532 C13.9815906,14.7995648 12.7669495,14.7996194 11.5523085,14.7990172 L11.3332553,14.7990172 C11.3332553,14.8860627 11.3332669,14.9538121 11.3332553,15.0215601 C11.3330837,15.9106729 11.3381181,16.7998266 11.3311029,17.6888854 C11.328522,18.4043216 10.876169,19.0407831 10.2013553,19.2784426 C10.0898487,19.3182741 9.97390718,19.3456385 9.86001455,19.3787636 Z M10.1999928,14.798995 C9.63468141,14.798995 9.0941643,14.8008118 8.55366131,14.7986044 C7.53776193,14.7944531 6.80469308,14.0605193 6.80064423,13.0432957 C6.79835966,12.469274 6.79707228,11.8952049 6.80292881,11.3212357 C6.81344223,11.2274195 6.75815231,11.1386624 6.66931072,11.106738 C6.08796951,10.8209855 5.51140487,10.5254679 4.92983101,10.2401984 C4.69605954,10.1255306 4.53737573,9.96280503 4.53654355,9.69141806 C4.53571238,9.42027333 4.69145506,9.25570826 4.92611776,9.14067713 C5.49080787,8.86386714 6.04810174,8.57173228 6.61560278,8.30097159 C6.76571149,8.22935293 6.80693375,8.14500787 6.8041854,7.98607728 C6.79426135,7.41222566 6.79486896,6.83802028 6.80210723,6.26408287 C6.8124572,5.443367 7.38716068,4.74778748 8.19395412,4.61875822 C8.53245418,4.56462234 8.88361151,4.58653346 9.22912881,4.58085861 C9.54791956,4.57562483 9.86686625,4.57974484 10.1841779,4.57974484 C10.1909021,4.55515419 10.195779,4.53009539 10.198768,4.50477779 C10.1994028,3.57119425 10.20295,2.63759153 10.1977395,1.70403726 C10.1958939,1.37336338 9.95080557,1.14032164 9.61561604,1.13662857 C9.21273811,1.13218761 8.80977489,1.13550672 8.40684901,1.13547443 C8.25223474,1.13546181 8.09762047,1.13547443 7.93162925,1.13547443 C7.93162925,1.36327028 7.9369685,1.56463329 7.93068857,1.7656375 C7.90582723,2.56138303 7.32104528,3.26396313 6.53390363,3.36563149 C6.0503848,3.42808359 5.55447518,3.40838286 5.06440189,3.40255459 C4.24983681,3.39368897 3.56073758,2.79794655 3.43421387,1.99321887 C3.38961698,1.71703314 3.39989731,1.43195185 3.38429135,1.13547745 C2.85842186,1.13547745 2.3373052,1.1352872 1.81618855,1.13553398 C1.34700144,1.13575602 1.13400914,1.34718288 1.13399552,1.81388659 C1.13388802,7.06215637 1.13388802,12.3104268 1.13398088,17.558698 C1.13399098,18.0293567 1.34514077,18.2430852 1.81037644,18.2431892 C3.10099906,18.2434343 4.39162135,18.2434343 5.6822433,18.2434343 C6.97916201,18.2434343 8.27608071,18.2431209 9.57299942,18.2427925 C9.95756593,18.2424206 10.1940726,18.0137997 10.1994699,17.6413817 C10.2021214,17.4584876 10.1999887,17.2755228 10.1999902,17.0925908 C10.1999963,16.3365046 10.1999928,15.5804189 10.1999928,14.798995 Z M6.36983363,9.68905123 C6.78753682,9.89827425 7.15994316,10.0906731 7.53763173,10.272029 C7.81225152,10.4038955 7.93964014,10.6086094 7.93604296,10.9166959 C7.92786452,11.616725 7.93280459,12.316918 7.93373013,13.017042 C7.93428525,13.4353159 8.15852227,13.6630729 8.57231489,13.6632026 C10.7882042,13.6638981 13.0040934,13.6639149 15.2199827,13.6632531 C15.6372918,13.6631396 15.8657901,13.4376066 15.8659294,13.0243247 C15.8666854,10.7977989 15.8666465,8.57127405 15.8658128,6.34475001 C15.8656362,5.94274159 15.6350506,5.71566185 15.229557,5.71554275 C13.007372,5.71489073 10.7851875,5.71491798 8.56300349,5.7156245 C8.16137004,5.71577186 7.93451739,5.94598804 7.93381289,6.35176976 C7.93260777,7.04558501 7.92523375,7.7395461 7.93705025,8.4331615 C7.94270239,8.76492796 7.81042618,8.98076297 7.51295711,9.12000696 C7.14338845,9.29300229 6.78173732,9.48297776 6.36983363,9.68905123 Z M4.53413584,1.14327186 C4.53413584,1.34648645 4.52904639,1.52883658 4.5352698,1.71079762 C4.53702647,2.01573321 4.78214208,2.26336865 5.08704376,2.2682439 C5.47634764,2.27666895 5.86580511,2.27650528 6.25541616,2.26775287 C6.51938487,2.26785431 6.74368274,2.07476724 6.7828405,1.81371904 C6.81114106,1.59400423 6.78865715,1.36772235 6.78865715,1.14327186 L4.53413584,1.14327186 Z" id="Shape"></path>
                    <path d="M5.66654903,15.9725421 C5.8548773,15.9725421 6.04332013,15.9683318 6.23151064,15.9734768 C6.54291237,15.9724274 6.79667671,16.2231137 6.79944999,16.5345051 C6.80217817,16.8458964 6.55288206,17.1010266 6.24151038,17.1054787 C5.85873842,17.1133429 5.47583087,17.1133563 5.09278774,17.105519 C4.7814379,17.1013541 4.53191553,16.846497 4.53431955,16.5351287 C4.53675852,16.2237604 4.7902145,15.9728149 5.10159146,15.9734929 C5.28977489,15.9682929 5.47822075,15.9725447 5.66654903,15.9725421 Z" id="Path"></path>
                    <path d="M10.0074536,11.4478229 C10.0590233,11.1338577 10.113841,10.7661915 10.1827017,10.4011834 C10.2109117,10.3044108 10.1796474,10.2000943 10.1028617,10.1347895 C9.86069129,9.90500131 9.62794881,9.66527793 9.3884717,9.43258793 C9.21133769,9.26047675 9.13009677,9.06176721 9.20768096,8.81785822 C9.28503452,8.57466887 9.46478113,8.45420361 9.70833131,8.41790477 C10.0255299,8.37062714 10.3423944,8.32040536 10.660519,8.28035794 C10.7866928,8.2756896 10.8977994,8.19590558 10.9425441,8.07783976 C11.073431,7.78496104 11.2275527,7.50259429 11.3680694,7.21392035 C11.4768014,6.9905468 11.645327,6.85435345 11.8979297,6.85352762 C12.1505481,6.85270727 12.3207996,6.98766067 12.4301004,7.21051696 C12.56871,7.49312998 12.7198033,7.77004797 12.8469921,8.05764447 C12.9113997,8.20328546 13.0027499,8.26201472 13.1546925,8.28110583 C13.4914556,8.32342522 13.8286662,8.36956585 14.161177,8.43664615 C14.610398,8.52727366 14.7690606,9.03260015 14.465515,9.37528735 C14.4196292,9.4270892 14.3689643,9.47469838 14.3197034,9.5234284 C14.1091814,9.73167946 13.8930234,9.93463921 13.6914404,10.1512267 C13.6387066,10.2146889 13.6129785,10.2963085 13.6197869,10.3785396 C13.6630732,10.7030087 13.7237237,11.0251736 13.7792706,11.3479703 C13.8230348,11.6022949 13.7815657,11.8298989 13.5580055,11.9868477 C13.3439872,12.1370952 13.1225041,12.1142293 12.8995408,11.9948168 C12.6112893,11.8404377 12.3230019,11.6853288 12.027505,11.5459067 C11.9466024,11.5125278 11.8558146,11.5123228 11.774762,11.5453359 C11.451224,11.699007 11.14027,11.8793335 10.8163989,12.0322233 C10.4165186,12.2209987 9.99659295,11.9398638 10.0074536,11.4478229 Z M12.8293064,9.38767512 C12.3535946,9.38237069 12.0516487,9.16388421 11.8998903,8.70757792 C11.7485341,9.16454329 11.4457349,9.3818413 10.9910475,9.36782905 C11.1240842,9.55420229 11.283579,9.70096917 11.3416315,9.88064059 C11.3990911,10.0584811 11.3541934,10.2695184 11.3541934,10.4480881 C11.5312876,10.3893059 11.7192611,10.2783029 11.9072361,10.2782984 C12.0922579,10.2782938 12.2772832,10.390842 12.5034293,10.4680417 C12.3214057,10.0205628 12.4516819,9.6748477 12.8293064,9.38767512 Z" id="Shape"></path>
                </g>
            </g>
        </g>
    </g>
</svg>