<svg width="48" height="48" viewBox="0 0 48 48" fill="none" xmlns="http://www.w3.org/2000/svg">
<circle cx="24" cy="24" r="24" fill="white"/>
<path fill-rule="evenodd" clip-rule="evenodd" d="M24.1914 17.8475C24.5218 18.178 24.5494 18.6966 24.274 19.0584L24.1914 19.1529L20.1972 23.1462L30.0002 23.1464C30.51 23.1464 30.9233 23.5597 30.9233 24.0695C30.9233 24.5428 30.567 24.933 30.1079 24.9863L30.0002 24.9925L20.2592 24.9922L24.1914 28.9244C24.5218 29.2549 24.5494 29.7735 24.274 30.1353L24.1914 30.2299C23.861 30.5603 23.3423 30.5878 22.9805 30.3125L22.886 30.2299L17.3475 24.6914C17.0171 24.361 16.9895 23.8423 17.2649 23.4805L17.3475 23.386L22.886 17.8475C23.2465 17.487 23.8309 17.487 24.1914 17.8475Z" fill="#B07B8B"/>
</svg>
