<?xml version="1.0" encoding="utf-8"?>
<svg width="15px" height="20px" viewBox="0 0 15 20" version="1.1" xmlns:xlink="http://www.w3.org/1999/xlink" xmlns="http://www.w3.org/2000/svg">
  <g id="04_Iconsheartfilled">
    <path d="M10.88 3.84C10.88 1.71923 9.16077 0 7.04 0C4.91923 0 3.2 1.71923 3.2 3.84L3.2 7.04L2.56 7.04C1.14615 7.04 0 8.18615 0 9.6L0 16.64C0 18.0538 1.14615 19.2 2.56 19.2L11.52 19.2C12.9338 19.2 14.08 18.0538 14.08 16.64L14.08 9.6C14.08 8.18615 12.9338 7.04 11.52 7.04L4.48 7.04L4.48 3.84L4.48545 3.67168C4.57212 2.33629 5.6827 1.28 7.04 1.28C8.45385 1.28 9.6 2.42615 9.6 3.84C9.6 4.19346 9.88654 4.48 10.24 4.48C10.5935 4.48 10.88 4.19346 10.88 3.84ZM3.84 8.32L2.56 8.32C1.85308 8.32 1.28 8.89308 1.28 9.6L1.28 16.64C1.28 17.3469 1.85308 17.92 2.56 17.92L11.52 17.92C12.2269 17.92 12.8 17.3469 12.8 16.64L12.8 9.6C12.8 8.89308 12.2269 8.32 11.52 8.32L3.84 8.32Z" id="lock-openoutline" fill="#3C3C3C" fill-rule="evenodd" stroke="none" />
  </g>
</svg>