<svg width="15" height="19" viewBox="0 0 15 19" fill="none" xmlns="http://www.w3.org/2000/svg">
<path fill-rule="evenodd" clip-rule="evenodd" d="M6.93537 0.400391H2.72727C1.22104 0.400391 0 1.55166 0 2.97182V15.829C0 17.2491 1.22104 18.4004 2.72727 18.4004H12.2727C13.779 18.4004 15 17.2491 15 15.829V8.00419C15 7.49286 14.7845 7.00246 14.4011 6.64083L8.38141 0.965152C7.99781 0.603552 7.47768 0.400391 6.93537 0.400391ZM6.81836 1.68604H2.72741C1.97429 1.68604 1.36377 2.26167 1.36377 2.97175V15.8289C1.36377 16.539 1.97429 17.1146 2.72741 17.1146H12.2729C13.026 17.1146 13.6365 16.539 13.6365 15.8289V8.11454H8.86381C7.78793 8.11454 6.90606 7.33136 6.82451 6.33668L6.81836 6.18597V1.68604ZM12.6722 6.82882L8.182 2.59521V6.18597C8.182 6.50873 8.43428 6.77594 8.76306 6.82185L8.86381 6.82882H12.6722ZM10.9092 10.0732C11.2857 10.0732 11.591 10.3611 11.591 10.7161C11.591 11.0389 11.3387 11.3061 11.0099 11.352L10.9092 11.359H4.091C3.71444 11.359 3.40918 11.0711 3.40918 10.7161C3.40918 10.3933 3.66146 10.1261 3.99024 10.0802L4.091 10.0732H10.9092ZM11.5909 13.9305C11.5909 13.5755 11.2856 13.2877 10.9091 13.2877H4.09091L3.99015 13.2946C3.66137 13.3406 3.40909 13.6078 3.40909 13.9305C3.40909 14.2856 3.71435 14.5734 4.09091 14.5734H10.9091L11.0098 14.5664C11.3386 14.5205 11.5909 14.2533 11.5909 13.9305Z" fill="#3C3C3C"/>
</svg>
