<svg width="17" height="18" viewBox="0 0 17 18" fill="none" xmlns="http://www.w3.org/2000/svg">
<path fill-rule="evenodd" clip-rule="evenodd" d="M8.5 0.875C4.0142 0.875 0.375 4.5142 0.375 9C0.375 13.4858 4.0142 17.125 8.5 17.125C12.9858 17.125 16.625 13.4858 16.625 9C16.625 4.5142 12.9858 0.875 8.5 0.875ZM8.5 2.125C12.2954 2.125 15.375 5.20455 15.375 9C15.375 12.7954 12.2954 15.875 8.5 15.875C4.70455 15.875 1.625 12.7954 1.625 9C1.625 5.20455 4.70455 2.125 8.5 2.125ZM12.652 5.39643C12.3877 5.17442 11.9935 5.2087 11.7714 5.473L6.98371 11.1726L5.21456 9.2069L5.20498 9.19649C4.97285 8.94981 4.58495 8.93269 4.3319 9.16044C4.07533 9.39135 4.05453 9.78653 4.28544 10.0431L6.53544 12.5431L6.54459 12.5531C6.80001 12.8251 7.23726 12.8143 7.47857 12.527L12.7286 6.277L12.7374 6.26621C12.9496 6.00207 12.9127 5.61545 12.652 5.39643Z" fill="#34675D"/>
</svg>
