<?xml version="1.0" encoding="utf-8"?>
<svg width="15px" height="18px" viewBox="0 0 15 18" version="1.1" xmlns:xlink="http://www.w3.org/1999/xlink" xmlns="http://www.w3.org/2000/svg">
  <g id="noun_file-share_518442">
    <g id="Group">
      <path d="M0.515854 0.999409L3.72805 0.999409C4.01341 0.999409 4.2439 0.776137 4.2439 0.499705C4.2439 0.223272 4.01341 0 3.72805 0L0.515854 0C0.230488 0 0 0.223272 0 0.499705C0 0.776137 0.230488 0.999409 0.515854 0.999409Z" transform="translate(3.7719512 2.4595392)" id="Path" fill="#3C3C3C" stroke="none" />
      <path d="M6.81585 0L0.515854 0C0.230488 0 0 0.223272 0 0.499705C0 0.776137 0.230488 0.999409 0.515854 0.999409L6.81951 0.999409C7.10488 0.999409 7.33537 0.776137 7.33537 0.499705C7.33537 0.223272 7.10122 0 6.81585 0Z" transform="translate(3.8341463 5.259303)" id="Path" fill="#3C3C3C" stroke="none" />
      <path d="M6.81585 0L0.515854 0C0.230488 0 0 0.223272 0 0.499705C0 0.776137 0.230488 0.999409 0.515854 0.999409L6.81951 0.999409C7.10488 0.999409 7.33537 0.776137 7.33537 0.499705C7.33537 0.223272 7.10122 0 6.81585 0Z" transform="translate(3.8341463 7.8038983)" id="Path" fill="#3C3C3C" stroke="none" />
      <path d="M6.81585 0L0.515854 0C0.230488 0 0 0.223272 0 0.499705C0 0.776137 0.230488 0.999409 0.515854 0.999409L6.81951 0.999409C7.10488 0.999409 7.33537 0.776137 7.33537 0.499705C7.33537 0.223272 7.10122 0 6.81585 0Z" transform="translate(3.8341463 10.348494)" id="Path" fill="#3C3C3C" stroke="none" />
      <path d="M14.4841 15.8346L9.22317 15.8346L9.22317 15.1648C9.22317 14.8884 8.99268 14.6651 8.70732 14.6651L8.01585 14.6651L8.01585 13.6161L12.5085 13.6161C12.7939 13.6161 13.0244 13.3928 13.0244 13.1164L13.0244 3.31364C13.0244 3.17897 12.9695 3.04784 12.8671 2.9557L9.87073 0.14176C9.77561 0.0496161 9.6439 0 9.51219 0L2.4878 0C2.20244 0 1.97195 0.223272 1.97195 0.499705L1.97195 13.1128C1.97195 13.3892 2.20244 13.6125 2.4878 13.6125L6.98049 13.6125L6.98049 14.6615L6.29268 14.6615C6.00732 14.6615 5.77683 14.8848 5.77683 15.1613L5.77683 15.8311L0.515854 15.8311C0.230488 15.8311 0 16.0543 0 16.3308C0 16.6072 0.230488 16.8305 0.515854 16.8305L5.77683 16.8305L5.77683 17.5003C5.77683 17.7767 6.00732 18 6.29268 18L8.70732 18C8.99268 18 9.22317 17.7767 9.22317 17.5003L9.22317 16.834L14.4841 16.834C14.7695 16.834 15 16.6108 15 16.3343C15 16.0579 14.7695 15.8346 14.4841 15.8346ZM10.028 1.67986L11.2354 2.81394L10.028 2.81394L10.028 1.67986ZM3.00732 0.999409L8.99634 0.999409L8.99634 3.31364C8.99634 3.59008 9.22683 3.81335 9.5122 3.81335L11.9927 3.81335L11.9927 12.6131L3.00732 12.6131L3.00732 0.999409ZM8.19146 17.0041L6.80854 17.0041L6.80854 15.6645L8.19146 15.6645L8.19146 17.0041Z" id="Shape" fill="#3C3C3C" stroke="none" />
    </g>
  </g>
</svg>