<svg width="18" height="15" viewBox="0 0 18 15" fill="none" xmlns="http://www.w3.org/2000/svg">
<path fill-rule="evenodd" clip-rule="evenodd" d="M15.68 0H2.24C1.00343 0.00132277 0.00132277 1.00343 0 2.24V11.84C0.00132277 13.0766 1.00343 14.0787 2.24 14.08H15.68C16.9166 14.0787 17.9187 13.0766 17.92 11.84V2.24C17.9187 1.00343 16.9166 0.00132277 15.68 0ZM15.1128 3.7052L9.3528 8.1852C9.12174 8.36483 8.79826 8.36483 8.5672 8.1852L2.8072 3.7052C2.62302 3.56611 2.528 3.33863 2.55851 3.10986C2.58902 2.88109 2.74034 2.68647 2.95453 2.60051C3.16873 2.51456 3.41261 2.55058 3.5928 2.6948L8.96 6.8692L14.3272 2.6948C14.6065 2.48391 15.0033 2.53642 15.2181 2.81269C15.4329 3.08896 15.386 3.48653 15.1128 3.7052Z" fill="white"/>
</svg>
