<svg width="16" height="16" viewBox="0 0 16 16" fill="none" xmlns="http://www.w3.org/2000/svg">
<path fill-rule="evenodd" clip-rule="evenodd" d="M15.8438 0.201935C15.7303 0.0771452 15.5706 0.00424798 15.4019 0.000179802C15.2332 -0.00388837 15.0702 0.0612267 14.9508 0.180396L14.475 0.653858C14.3549 0.774003 14.3549 0.968713 14.475 1.08886L14.9112 1.52424C14.9689 1.58226 15.0474 1.61487 15.1292 1.61487C15.2111 1.61487 15.2896 1.58226 15.3473 1.52424L15.8112 1.0627C16.0458 0.828473 16.0677 0.446935 15.8438 0.201935ZM8.59539 2.46155C8.93525 2.46155 9.21077 2.73707 9.21077 3.07693C9.21077 3.38591 8.98307 3.64169 8.68632 3.68565L8.59539 3.69232H2.15385C1.68046 3.69232 1.2903 4.04866 1.23698 4.50775L1.23077 4.6154V13.8462C1.23077 14.3196 1.58711 14.7097 2.0462 14.763L2.15385 14.7692H11.3846C11.6294 14.7692 11.8642 14.672 12.0373 14.4989C12.1816 14.3546 12.2732 14.1675 12.2997 13.9675L12.3077 13.8462V6.76924C12.3077 6.42937 12.5832 6.15386 12.9231 6.15386C13.232 6.15386 13.4878 6.38156 13.5318 6.67831L13.5385 6.76924V13.8462C13.5385 14.4174 13.3115 14.9652 12.9076 15.3692C12.5486 15.7282 12.0758 15.9474 11.574 15.9917L11.3846 16H2.15385C1.01603 16 0.0842788 15.1177 0.00540793 14L0 13.8462V4.6154C0 3.47758 0.88228 2.54583 2.00003 2.46696L2.15385 2.46155H8.59539ZM6.57 8.54617L13.5131 1.6154C13.6482 1.48067 13.8668 1.48067 14.0019 1.6154L14.3846 2.00001C14.5181 2.13489 14.5181 2.35206 14.3846 2.48693L7.45385 9.43078C7.41192 9.47288 7.35987 9.50347 7.30269 9.51963L6.34692 9.84078C6.29405 9.85645 6.23684 9.84193 6.19785 9.80293C6.15885 9.76394 6.14433 9.70673 6.16 9.65386L6.48115 8.69732C6.49731 8.64014 6.5279 8.58809 6.57 8.54617Z" fill="#3C3C3C"/>
</svg>
