<svg width="16" height="17" viewBox="0 0 16 17" fill="none" xmlns="http://www.w3.org/2000/svg">
<path fill-rule="evenodd" clip-rule="evenodd" d="M12.2247 0H0.361795C0.0877688 0.122173 -0.000359787 0.332748 1.10305e-06 0.630089C0.00292468 5.72785 0.00443485 10.8256 0.00453161 15.9234C0.00453763 16.2413 0.123189 16.4255 0.373461 16.4888C0.431099 16.5011 0.490028 16.5063 0.548933 16.5043C3.34223 16.5035 6.13552 16.5042 8.92881 16.5066C9.10214 16.5115 9.26945 16.4429 9.38941 16.3177C10.3871 15.3175 11.3862 14.3186 12.3865 13.321C12.5158 13.1972 12.5857 13.0238 12.5785 12.8449C12.5755 12.5934 12.5758 12.3419 12.5761 12.0904C12.5764 11.8638 12.5767 11.6372 12.5745 11.4107C12.565 11.3259 12.6067 11.2436 12.6806 11.2011C14.5053 10.003 15.5057 8.28138 15.8719 6.15957C15.9968 5.46631 16.0305 4.75971 15.9724 4.0577C15.9455 3.75685 15.8049 3.61686 15.5097 3.5718L15.5053 3.57113C14.8795 3.4756 14.2482 3.37923 13.6962 3.05112C13.4091 2.8805 13.1436 2.67307 12.8786 2.46607L12.8786 2.46605C12.8054 2.40886 12.7322 2.35171 12.6586 2.29537C12.6081 2.24405 12.5799 2.17487 12.5801 2.10287L12.5786 1.98976C12.5724 1.54403 12.5663 1.09796 12.5808 0.652688C12.5906 0.353566 12.4999 0.132379 12.2247 0ZM0.983437 15.525V0.974771H11.609C11.609 1.06872 11.6092 1.16227 11.6094 1.25551C11.61 1.56248 11.6105 1.86609 11.6049 2.16959C11.604 2.21731 11.5531 2.27113 11.5136 2.31007C10.828 2.98489 9.99865 3.36699 9.05392 3.51244L8.68808 3.56964C8.36517 3.6203 8.21447 3.77294 8.20286 4.106C8.18368 4.48686 8.1837 4.86844 8.20294 5.2493C8.2841 6.47418 8.58582 7.64044 9.1834 8.72103C9.71539 9.69714 10.4802 10.5267 11.41 11.1361C11.5637 11.237 11.6243 11.3403 11.614 11.5232C11.6023 11.7321 11.6048 11.9418 11.6073 12.1594V12.1594C11.6084 12.2532 11.6095 12.3484 11.6095 12.4457H11.4279C10.6437 12.4452 9.85943 12.4453 9.07518 12.4458C8.70776 12.4461 8.51741 12.6345 8.51709 12.9991C8.51656 13.5944 8.51666 14.1897 8.51677 14.7895L8.51685 15.525H0.983437ZM12.1026 3.10289C12.082 3.11368 12.0621 3.12594 12.0432 3.13957C11.2569 3.86242 10.3263 4.28209 9.27775 4.45073C9.17581 4.46713 9.15111 4.51533 9.15025 4.6114C9.13886 5.33707 9.23034 6.0607 9.42195 6.76071C9.8419 8.2635 10.6622 9.48352 11.9706 10.3586C12.0603 10.4185 12.12 10.4198 12.2118 10.3588C12.8652 9.93085 13.4274 9.37768 13.8658 8.73127C14.4879 7.8093 14.8276 6.78331 14.9626 5.68729C14.9961 5.41539 15.0121 5.14133 15.0284 4.86318L15.0284 4.86314C15.0358 4.735 15.0434 4.60598 15.0527 4.47591C13.9141 4.30626 12.9277 3.88162 12.1026 3.10289ZM10.8295 13.4228L9.49114 14.7616V13.4228H10.8295Z" fill="#3C3C3C"/>
<path fill-rule="evenodd" clip-rule="evenodd" d="M1.93789 3.09182C1.93809 3.18655 1.93829 3.28128 1.93829 3.37601C1.93829 3.47236 1.93809 3.56871 1.9379 3.66506C1.93745 3.88527 1.937 4.10548 1.93889 4.32567C1.9415 4.63054 2.13884 4.83268 2.44109 4.83415C3.06884 4.83681 3.69658 4.83687 4.32432 4.83434C4.63467 4.83308 4.83681 4.63116 4.83842 4.31829C4.84157 3.6959 4.84158 3.07352 4.83844 2.45116C4.83686 2.13749 4.63549 1.93592 4.32496 1.93469C3.69721 1.93187 3.06947 1.93193 2.44173 1.93485C2.13904 1.93626 1.94157 2.13774 1.93889 2.44245C1.93699 2.65889 1.93744 2.87536 1.93789 3.09182ZM3.86327 3.85473H2.91105L2.91105 2.91118H3.86327V3.85473Z" fill="#3C3C3C"/>
<path fill-rule="evenodd" clip-rule="evenodd" d="M1.9379 6.95933C1.93809 7.05419 1.93829 7.14905 1.93829 7.24391C1.93829 7.34014 1.9381 7.43638 1.9379 7.53262C1.93746 7.75294 1.93701 7.97326 1.93889 8.19357C1.94148 8.49857 2.13867 8.70081 2.44083 8.7023C3.06858 8.70494 3.69632 8.70501 4.32406 8.70249C4.63454 8.70125 4.83679 8.49947 4.83841 8.1867C4.84155 7.56431 4.84156 6.94193 4.83845 6.31957C4.83688 6.00566 4.63576 5.80409 4.32523 5.80285C3.69747 5.80004 3.06973 5.80009 2.44199 5.80299C2.13915 5.8044 1.94159 6.00571 1.9389 6.31034C1.93699 6.52666 1.93744 6.74299 1.9379 6.95933ZM3.86126 6.78133V7.72798H2.91315V6.78133H3.86126Z" fill="#3C3C3C"/>
<path fill-rule="evenodd" clip-rule="evenodd" d="M1.9389 10.8446C1.93901 10.937 1.93911 11.0294 1.93912 11.1218C1.93913 11.2174 1.93896 11.313 1.9388 11.4086C1.93843 11.6242 1.93806 11.8398 1.93964 12.0553C1.94194 12.3699 2.13856 12.5699 2.45102 12.5711C3.0734 12.5733 3.69578 12.5733 4.31815 12.5712C4.63797 12.5701 4.83819 12.369 4.83952 12.0459C4.84215 11.4289 4.84214 10.8119 4.83949 10.1949C4.8381 9.87207 4.63762 9.67223 4.31678 9.67121C3.69976 9.66954 3.08275 9.6695 2.46574 9.67107C2.13324 9.67191 1.94096 9.86783 1.9394 10.2043C1.93841 10.4177 1.93866 10.6312 1.9389 10.8446ZM3.8606 10.6459V11.5981H2.91565V10.6459H3.8606Z" fill="#3C3C3C"/>
<path d="M12.0196 7.04647C12.3696 6.64126 12.7129 6.24375 13.0562 5.84616C13.1965 5.68364 13.3348 5.51931 13.4773 5.35876C13.6672 5.14488 13.9625 5.11551 14.1676 5.28644C14.3783 5.46206 14.3999 5.76562 14.2071 5.99058C13.6134 6.6835 13.0173 7.3744 12.4189 8.0633C12.214 8.29889 11.9162 8.31037 11.695 8.09308C11.3005 7.70562 10.9095 7.31467 10.522 6.92022C10.3305 6.7357 10.324 6.43117 10.5075 6.23871C10.6956 6.04304 10.9933 6.03754 11.1994 6.23591C11.4352 6.46297 11.6635 6.69796 11.8954 6.92914C11.9328 6.96636 11.972 7.00164 12.0196 7.04647Z" fill="#3C3C3C"/>
</svg>
