<?xml version="1.0" encoding="UTF-8"?>
<svg width="48px" height="48px" viewBox="0 0 48 48" version="1.1" xmlns="http://www.w3.org/2000/svg" xmlns:xlink="http://www.w3.org/1999/xlink">
    <title>facebook</title>
    <g id="App-Design-" stroke="none" stroke-width="1" fill="none" fill-rule="evenodd">
        <g id="09.1_Settings---Notloggedin" transform="translate(-138.000000, -1353.000000)">
            <g id="Group" transform="translate(82.000000, 1353.000000)">
                <g id="facebook" transform="translate(56.000000, 0.000000)">
                    <circle id="Base" fill="#B07B8B" cx="24" cy="24" r="24"></circle>
                    <g id="04_Icons/-add" transform="translate(15.000000, 15.000000)" fill="#FFFFFF">
                        <path d="M16.9307999,0 L0.989200003,0 C0.442971379,0.000220743058 0.000220743058,0.442971379 0,0.989200003 L0,16.9307999 C0.000220743058,17.4770291 0.442971379,17.9197789 0.989200003,17.92 L8.96,17.92 L8.96,10.8800002 L6.81800018,10.8800002 L6.81800018,8.31999974 L8.96,8.31999974 L8.96,6.28000003 C8.96,3.96559995 10.5652001,2.70559995 12.6327997,2.70559995 C13.6220009,2.70559995 14.6860002,2.78000003 14.9332001,2.81280008 L14.9332001,5.23000003 L13.2860002,5.23000003 C12.1612001,5.23000003 11.9467999,5.76200003 11.9467999,6.54599967 L11.9467999,8.31999974 L14.6268004,8.31999974 L14.2767995,10.8800002 L11.9467999,10.8800002 L11.9467999,17.92 L16.9307999,17.92 C17.4770291,17.9197789 17.9197789,17.4770291 17.92,16.9307999 L17.92,0.989200003 C17.9197789,0.442971379 17.4770291,0.000220743058 16.9307999,0 Z" id="z_logo/facebook"></path>
                    </g>
                </g>
            </g>
        </g>
    </g>
</svg>