<svg width="11" height="20" viewBox="0 0 11 20" fill="none" xmlns="http://www.w3.org/2000/svg">
<path d="M3.0157 11.2876C2.89814 11.2876 2.81324 11.2876 2.72181 11.2876C2.00339 11.2876 1.28498 11.2941 0.573098 11.2876C0.135519 11.2876 0.0114293 11.1635 0.00489827 10.739C-0.00163276 9.74629 -0.00163276 8.75357 0.00489827 7.75433C0.00489827 7.32328 0.14205 7.20572 0.566567 7.20572C1.28498 7.20572 2.00339 7.20572 2.71527 7.20572C2.80018 7.20572 2.89161 7.20572 3.00917 7.20572C3.00917 7.08816 3.00917 6.9902 3.00917 6.89876C3.02876 5.97136 2.98958 5.03742 3.06795 4.11655C3.26388 1.7915 5.04685 0.106496 7.38496 0.0215924C8.36461 -0.0175938 9.33773 0.00853032 10.3174 0.00853032C10.6439 0.00853032 10.7811 0.145682 10.7876 0.472233C10.7942 1.43883 10.7942 2.41195 10.7876 3.37854C10.7876 3.71162 10.6505 3.84224 10.2978 3.84877C9.63816 3.86837 8.97853 3.86837 8.31889 3.8749C7.54823 3.88796 7.24781 4.17532 7.23474 4.93946C7.22168 5.6644 7.23474 6.38934 7.23474 7.14041C7.33271 7.14694 7.41761 7.15347 7.50252 7.15347C8.35155 7.15347 9.20058 7.15347 10.0431 7.15347C10.5656 7.15347 10.6897 7.27756 10.6897 7.80658C10.6897 8.76664 10.6897 9.7267 10.6897 10.6933C10.6897 11.1439 10.5786 11.2615 10.128 11.2615C9.26589 11.268 8.4038 11.2615 7.53517 11.2615C7.44374 11.2615 7.35883 11.2615 7.22821 11.2615C7.22821 11.379 7.22821 11.4835 7.22821 11.5815C7.22821 14.1417 7.22821 16.7018 7.22821 19.2555C7.22821 19.9086 7.13678 20 6.47714 20C5.5628 20 4.65499 20 3.74065 20C3.08754 20 3.00264 19.9151 3.00264 19.2751C3.00264 16.7149 3.00264 14.1547 3.00264 11.6011C3.0157 11.5097 3.0157 11.4117 3.0157 11.2876Z" fill="white"/>
</svg>
