<svg width="18" height="18" viewBox="0 0 18 18" fill="none" xmlns="http://www.w3.org/2000/svg">
<path d="M17.6766 7.5792L17.5862 7.1956H9.2486V10.7244H14.2302C13.713 13.1804 11.313 14.4732 9.35259 14.4732C7.92619 14.4732 6.4226 13.8732 5.4274 12.9088C4.36694 11.8647 3.76538 10.4417 3.7554 8.9536C3.7554 7.4672 4.4234 5.9804 5.3954 5.0024C6.3674 4.0244 7.8354 3.4772 9.295 3.4772C10.9666 3.4772 12.1646 4.3648 12.6126 4.7696L15.1202 2.2752C14.3846 1.6288 12.3638 0 9.2142 0C6.7842 0 4.4542 0.9308 2.751 2.6284C1.0702 4.3 0.200195 6.7172 0.200195 8.96C0.200195 11.2028 1.0234 13.4992 2.6522 15.184C4.3926 16.9808 6.8574 17.92 9.3954 17.92C11.7046 17.92 13.8934 17.0152 15.4534 15.3736C16.987 13.7576 17.7802 11.5216 17.7802 9.1776C17.7802 8.1908 17.681 7.6048 17.6766 7.5792Z" fill="#3C3C3C"/>
</svg>
