<svg width="7" height="13" viewBox="0 0 7 13" fill="none" xmlns="http://www.w3.org/2000/svg">
<path fill-rule="evenodd" clip-rule="evenodd" d="M2.24157 1.29696C2.24157 2.01325 2.80499 2.59392 3.5 2.59392C3.83376 2.59392 4.15384 2.45728 4.38984 2.21405C4.62584 1.97082 4.75843 1.64094 4.75843 1.29696C4.75843 0.580669 4.19501 0 3.5 0C2.80499 0 2.24157 0.580669 2.24157 1.29696ZM3.6573 4.21512C4.05827 4.21512 4.38916 4.52435 4.43769 4.92404L4.44382 5.02572V11.3788H6.21348C6.64786 11.3788 7 11.7417 7 12.1894C7 12.6026 6.69996 12.9437 6.31214 12.9937L6.21348 13H0.786517C0.352136 13 0 12.6371 0 12.1894C0 11.7762 0.300045 11.4351 0.687858 11.3851L0.786517 11.3788H2.87079V5.83632H1.14045C0.739482 5.83632 0.408594 5.52709 0.360061 5.1274L0.353933 5.02572C0.353933 4.61248 0.653977 4.27146 1.04179 4.22144L1.14045 4.21512H3.6573Z" fill="#3C3C3C"/>
</svg>
