<?xml version="1.0" encoding="UTF-8"?>
<svg width="48px" height="48px" viewBox="0 0 48 48" version="1.1" xmlns="http://www.w3.org/2000/svg" xmlns:xlink="http://www.w3.org/1999/xlink">
    <title>instagram</title>
    <g id="App-Design-" stroke="none" stroke-width="1" fill="none" fill-rule="evenodd">
        <g id="09.1_Settings---Notloggedin" transform="translate(-82.000000, -1353.000000)">
            <g id="instagram" transform="translate(82.000000, 1353.000000)">
                <circle id="Base" fill="#B07B8B" cx="24" cy="24" r="24"></circle>
                <g id="04_Icons/-add" transform="translate(15.200000, 15.000000)" fill="#FFFFFF">
                    <path d="M12.6932001,3.55271368e-14 C15.568,3.55271368e-14 17.92,2.352 17.92,5.22679987 L17.92,5.22679987 L17.92,12.6932001 C17.92,15.568 15.568,17.92 12.6932001,17.92 L12.6932001,17.92 L5.22679987,17.92 C2.352,17.92 -2.13162821e-14,15.568 -2.13162821e-14,12.6932001 L-2.13162821e-14,12.6932001 L-2.13162821e-14,5.22679987 C-2.13162821e-14,2.352 2.352,3.55271368e-14 5.22679987,3.55271368e-14 L5.22679987,3.55271368e-14 Z M12.6931999,1.4932 L5.22679981,1.4932 C3.16734258,1.4993503 1.4993503,3.16734258 1.4932,5.22679981 L1.4932,5.22679981 L1.4932,12.6931999 C1.4993503,14.7526568 3.16734258,16.4206493 5.22679981,16.4268 L5.22679981,16.4268 L12.6931999,16.4268 C14.7526568,16.4206493 16.4206493,14.7526568 16.4268,12.6931999 L16.4268,12.6931999 L16.4268,5.22679981 C16.4206493,3.16734258 14.7526568,1.4993503 12.6931999,1.4932 L12.6931999,1.4932 Z M8.96,4.48 C10.1481697,4.48 11.2876754,4.95199864 12.1278385,5.79216172 C12.9680015,6.63232461 13.44,7.77183026 13.44,8.96 C13.44,11.4342355 11.4342355,13.44 8.96,13.44 C6.48576436,13.44 4.48,11.4342355 4.48,8.96 C4.48,6.48576436 6.48576436,4.48 8.96,4.48 Z M8.95999989,5.9732 C7.311167,5.97496369 5.97496369,7.311167 5.9732,8.95999989 C5.9732,10.1680476 6.70091043,11.257143 7.81700101,11.719443 C8.9330916,12.1817431 10.2177675,11.9262049 11.0719862,11.0719862 C11.9262049,10.2177675 12.1817431,8.9330916 11.719443,7.81700101 C11.257143,6.70091043 10.1680476,5.9732 8.95999989,5.9732 Z M13.8132,2.9868 C14.4317589,2.9868 14.9332026,3.48824109 14.9332026,4.10680002 C14.933839,4.404038 14.8160445,4.68928566 14.6058651,4.89946508 C14.3956857,5.10964451 14.110438,5.22743898 13.8132,5.2268026 C13.1946411,5.2268026 12.6932,4.72535889 12.6932,4.10680002 C12.6932,3.48824109 13.1946411,2.9868 13.8132,2.9868 Z" id="z_logo/instagram"></path>
                </g>
            </g>
        </g>
    </g>
</svg>