<svg width="217" height="7" viewBox="0 0 217 7" fill="none" xmlns="http://www.w3.org/2000/svg">
<path d="M1.08667 3.79004C4.07264 1.12337 10.0446 1.12337 13.0306 3.79004C16.0165 6.45671 21.9905 6.45671 24.9764 3.79004C27.9604 1.12337 33.9344 1.12337 36.9203 3.79004C39.9063 6.45671 45.8783 6.45671 48.8642 3.79004C51.8502 1.12337 57.8221 1.12337 60.8081 3.79004C63.7941 6.45671 69.768 6.45671 72.754 3.79004C75.738 1.12337 81.7119 1.12337 84.6979 3.79004C87.6839 6.45671 93.6558 6.45671 96.6418 3.79004C99.6278 1.12337 105.6 1.12337 108.586 3.79004C111.572 6.45671 117.546 6.45671 120.532 3.79004C123.516 1.12337 129.489 1.12337 132.475 3.79004C135.461 6.45671 141.433 6.45671 144.419 3.79004C147.405 1.12337 153.377 1.12337 156.363 3.79004C159.351 6.45671 165.323 6.45671 168.309 3.79004C171.293 1.12337 177.267 1.12337 180.253 3.79004C183.239 6.45671 189.211 6.45671 192.197 3.79004C195.183 1.12337 201.155 1.12337 204.141 3.79004C207.129 6.45671 213.101 6.45671 216.087 3.79004" stroke="#B07B8B" stroke-width="1.59" stroke-linecap="round"/>
</svg>
