<svg width="14" height="18" viewBox="0 0 14 18" fill="none" xmlns="http://www.w3.org/2000/svg">
<path fill-rule="evenodd" clip-rule="evenodd" d="M6.47301 0H2.54545C1.13964 0 0 1.15127 0 2.57143V15.4286C0 16.8487 1.13964 18 2.54545 18H11.4545C12.8604 18 14 16.8487 14 15.4286V7.6038C14 7.09247 13.7989 6.60207 13.441 6.24044L7.82265 0.564762C7.46462 0.203161 6.97917 0 6.47301 0ZM6.36364 1.28571H2.54545C1.84255 1.28571 1.27273 1.86135 1.27273 2.57143V15.4286C1.27273 16.1387 1.84255 16.7143 2.54545 16.7143H11.4545C12.1575 16.7143 12.7273 16.1387 12.7273 15.4286V7.71429H8.27273C7.26857 7.71429 6.44549 6.93111 6.36938 5.93643L6.36364 5.78571V1.28571ZM11.8273 6.42857L7.63636 2.19485V5.78571C7.63636 6.10848 7.87183 6.37569 8.17869 6.4216L8.27273 6.42857H11.8273ZM10.1818 9.67299C10.5333 9.67299 10.8182 9.96081 10.8182 10.3158C10.8182 10.6386 10.5827 10.9058 10.2759 10.9517L10.1818 10.9587H3.81818C3.46673 10.9587 3.18182 10.6709 3.18182 10.3158C3.18182 9.99308 3.41728 9.72588 3.72414 9.67996L3.81818 9.67299H10.1818ZM10.8182 13.5301C10.8182 13.1751 10.5333 12.8873 10.1818 12.8873H3.81818L3.72414 12.8942C3.41728 12.9402 3.18182 13.2074 3.18182 13.5301C3.18182 13.8852 3.46673 14.173 3.81818 14.173H10.1818L10.2759 14.166C10.5827 14.1201 10.8182 13.8529 10.8182 13.5301Z" fill="#3C3C3C"/>
</svg>
