<svg width="15" height="20" viewBox="0 0 15 20" fill="none" xmlns="http://www.w3.org/2000/svg">
<path fill-rule="evenodd" clip-rule="evenodd" d="M1.60711 19.6091L1.60702 19.609C1.43063 19.5553 1.25425 19.5015 1.09734 19.4132C0.374038 19.0059 0.00769291 18.3683 0.0035899 17.5379C-0.00118178 16.5723 -0.00016437 15.6066 0.000853041 14.6409C0.00127979 14.2359 0.00170653 13.8308 0.00170608 13.4258C0.00170197 9.67878 0.00188737 5.93178 0.00226229 2.18474C0.00265569 1.13567 0.644239 0.299554 1.63369 0.0641241C1.8146 0.0234455 1.99958 0.00374478 2.18499 0.00541188C4.94561 0.00181815 7.70622 0.000100045 10.4669 0.000257543C10.5784 -0.00258992 10.6893 0.0182017 10.7923 0.0612665C10.8953 0.104331 10.9879 0.168694 11.0642 0.250126C12.2891 1.48009 13.5165 2.70739 14.7467 3.93203C14.8297 4.01119 14.895 4.10704 14.9382 4.21326C14.9815 4.31948 15.0018 4.43367 14.9977 4.54829L14.996 6.25131C14.992 9.98792 14.9881 13.7245 15 17.4611C15.004 18.725 14.0894 19.5536 13.1983 19.6587C13.1866 19.6601 13.1757 19.6679 13.1648 19.6757C13.1615 19.6781 13.1582 19.6805 13.1548 19.6827C13.153 19.6839 13.1512 19.685 13.1494 19.6861H1.847C1.76828 19.6582 1.68769 19.6336 1.60711 19.6091ZM13.8412 5.00062H13.6105L10.6697 5.00045C10.2204 5.0002 9.99726 4.77725 9.99701 4.32838C9.99649 3.34171 9.99644 2.35503 9.99685 1.36835V1.15625H9.75983L2.24444 1.1563C1.5328 1.15633 1.15488 1.53471 1.15486 2.24745L1.15485 17.432C1.15486 18.1568 1.5304 18.5327 2.25447 18.5327L12.7299 18.5328C13.4684 18.5328 13.8412 18.161 13.8412 17.4243L13.8412 5.23821V5.00062ZM11.1621 2.06055L12.942 3.84042H11.1621V2.06055Z" fill="#3C3C3C"/>
<path fill-rule="evenodd" clip-rule="evenodd" d="M11.4242 10.8952C11.4206 10.6992 11.417 10.5031 11.417 10.3073L11.4498 10.3072C11.4498 10.1469 11.45 9.98664 11.4503 9.82635C11.4509 9.44281 11.4514 9.05928 11.4486 8.67578C11.4512 8.60675 11.4397 8.53793 11.415 8.47343C11.3902 8.40897 11.3527 8.35017 11.3046 8.3006C11.2565 8.25104 11.1989 8.2117 11.1351 8.185C11.0714 8.15834 11.003 8.14478 10.9339 8.1453C10.2079 8.11844 9.68631 7.77716 9.37113 7.12594C9.24951 6.87474 9.06236 6.76545 8.78426 6.76766C8.75194 6.76792 8.71961 6.76818 8.68729 6.76844C7.89529 6.77485 7.10304 6.78125 6.3114 6.76448C5.95703 6.75698 5.73932 6.88219 5.57991 7.20328C5.27982 7.80787 4.76676 8.11299 4.09307 8.1434C3.74778 8.15901 3.54746 8.36285 3.54702 8.71373C3.54461 9.64681 3.5449 10.5799 3.54792 11.513C3.54859 11.7187 3.55841 11.925 3.57687 12.1298C3.76754 14.2457 5.28218 16.0983 7.31633 16.6974C7.43086 16.7294 7.55186 16.7307 7.66706 16.701C9.64071 16.1639 11.2697 14.2088 11.4104 12.1772C11.4398 11.7516 11.432 11.3234 11.4242 10.8952ZM10.4193 10.5708L10.4501 10.5724C10.4397 10.7601 10.4354 10.9488 10.431 11.1376C10.4216 11.5513 10.4121 11.965 10.3389 12.367C10.0485 13.9616 9.10853 15.0483 7.59906 15.638C7.53065 15.6609 7.45654 15.6596 7.38895 15.6345C5.88708 15.0445 4.96822 13.9582 4.65151 12.3758C4.60138 12.0885 4.57772 11.7972 4.58083 11.5055C4.5756 11.0988 4.5761 10.692 4.5766 10.2852C4.57701 9.95366 4.57742 9.62212 4.57473 9.29062C4.57371 9.16453 4.60976 9.11939 4.73528 9.08801C5.4116 8.92695 5.99693 8.50525 6.36384 7.91468C6.38505 7.87564 6.4173 7.8438 6.45659 7.82316C6.49593 7.80251 6.54046 7.79393 6.58457 7.79861C7.19702 7.80246 7.80942 7.80266 8.42182 7.79917C8.46326 7.79481 8.50502 7.80282 8.54189 7.82223C8.57872 7.84164 8.60902 7.87154 8.62884 7.90815C8.81348 8.20557 9.05501 8.46354 9.33959 8.66738C9.62417 8.87123 9.94618 9.01688 10.2872 9.09602C10.3944 9.12273 10.4227 9.16196 10.4215 9.26581C10.4177 9.58354 10.4183 9.90135 10.4189 10.2192C10.4191 10.3364 10.4193 10.4536 10.4193 10.5708Z" fill="#3C3C3C"/>
</svg>
