<svg width="18" height="15" viewBox="0 0 18 15" fill="none" xmlns="http://www.w3.org/2000/svg">
<path fill-rule="evenodd" clip-rule="evenodd" d="M15.68 0H2.24C1.00288 0 0 1.00288 0 2.24V11.84C0 13.0771 1.00288 14.08 2.24 14.08H15.68C16.9171 14.08 17.92 13.0771 17.92 11.84V2.24C17.92 1.00288 16.9171 0 15.68 0ZM2.24 1.28H15.68C16.2102 1.28 16.64 1.70981 16.64 2.24V11.84C16.64 12.3702 16.2102 12.8 15.68 12.8H2.24C1.70981 12.8 1.28 12.3702 1.28 11.84V2.24C1.28 1.70981 1.70981 1.28 2.24 1.28ZM15.2252 2.80708C15.0082 2.52807 14.6061 2.47781 14.3271 2.69481L8.96 6.869L3.59292 2.69481L3.50584 2.63769C3.23535 2.49015 2.89012 2.55597 2.69481 2.80708C2.47781 3.08608 2.52807 3.48818 2.80708 3.70519L8.56708 8.18519L8.65772 8.24417C8.87765 8.36213 9.1507 8.34247 9.35292 8.18519L15.1129 3.70519L15.1897 3.63484C15.3993 3.40899 15.4205 3.05818 15.2252 2.80708Z" fill="#3C3C3C"/>
</svg>
