<svg width="14" height="18" viewBox="0 0 14 18" fill="none" xmlns="http://www.w3.org/2000/svg">
<path fill-rule="evenodd" clip-rule="evenodd" d="M13.4753 0.460036C13.2247 0.268918 12.8996 0.204952 12.5953 0.286894L4.80648 2.38097L4.79887 2.38307L4.78257 2.38779C4.24651 2.54689 3.87771 3.03857 3.87499 3.59773L3.875 7.28141V7.51579V12.4377L3.87485 12.4513C3.8692 12.7097 3.70311 12.929 3.44122 13.0172L1.38595 13.7286C0.6057 14.0027 0.125 14.722 0.125 15.5627C0.125 17.0605 1.57358 18.1115 2.98008 17.6396L2.98747 17.637L3.84973 17.3235L3.863 17.319C4.61843 17.0543 5.125 16.3637 5.125 15.5627L5.12498 7.52022C5.125 7.51874 5.125 7.51727 5.125 7.51579V7.28141L5.12514 7.26774C5.13104 6.99046 5.31604 6.76403 5.59966 6.69253L5.60399 6.69142L12.4282 4.86684L12.4371 4.86475C12.4814 4.85559 12.5276 4.86604 12.5637 4.89368C12.6021 4.92307 12.6247 4.96856 12.625 5.01688V5.87516V10.5603L12.6249 10.5738C12.6193 10.8301 12.4552 11.0451 12.1912 11.134L12.1861 11.1357L10.1949 11.8443L10.1804 11.8492C9.39491 12.1173 8.868 12.8588 8.87504 13.6906L8.87543 13.7303C8.90374 15.2091 10.3263 16.2349 11.7307 15.762L11.7378 15.7596L12.5989 15.4465L12.6134 15.4415C13.3686 15.1764 13.875 14.4859 13.875 13.6853V5.87516V5.01579V1.26579L13.8748 1.24814C13.868 0.936817 13.7212 0.647614 13.4753 0.460036ZM12.625 3.6202V1.57329L5.13793 3.58622L5.13571 3.5871C5.13012 3.58974 5.12618 3.59499 5.12521 3.6011L5.12498 3.60421L5.12498 5.53123C5.17207 5.51475 5.22012 5.49996 5.26906 5.48694L5.28543 5.48266L12.1052 3.6593C12.2767 3.6134 12.453 3.60096 12.625 3.6202ZM3.875 14.1897V15.5627L3.87485 15.5763C3.86921 15.8349 3.70327 16.054 3.44122 16.1422L3.43411 16.1446L2.57707 16.4562L2.56459 16.4603C1.9761 16.6449 1.375 16.2024 1.375 15.5627C1.375 15.2364 1.53714 14.9966 1.80906 14.9049L3.863 14.194L3.875 14.1897ZM12.625 13.6853V12.3065L12.613 12.3108L12.5977 12.316L10.6003 13.0268L10.5926 13.0294C10.3161 13.1198 10.1285 13.3761 10.125 13.666L10.125 13.6853C10.125 14.3323 10.7166 14.7716 11.3137 14.5833L11.327 14.5789L12.1839 14.2674L12.1908 14.265C12.4532 14.1765 12.6192 13.9573 12.6249 13.699L12.625 13.6853Z" fill="#3C3C3C"/>
</svg>
