<svg width="17" height="16" viewBox="0 0 17 16" fill="none" xmlns="http://www.w3.org/2000/svg">
<path fill-rule="evenodd" clip-rule="evenodd" d="M0.5 8C0.5 3.58321 4.08321 0 8.5 0C12.9168 0 16.5 3.58321 16.5 8C16.5 12.4168 12.9168 16 8.5 16C4.08321 16 0.5 12.4168 0.5 8ZM15.2692 7.9997C15.2692 4.26264 12.2371 1.23047 8.5 1.23047C4.76294 1.23047 1.73077 4.26264 1.73077 7.9997C1.73077 11.7368 4.76294 14.7689 8.5 14.7689C12.2371 14.7689 15.2692 11.7368 15.2692 7.9997ZM8.57519 3.69912L8.49179 3.69425C8.26487 3.69643 8.04857 3.79073 7.89255 3.95554C7.73651 4.12037 7.65419 4.34155 7.66448 4.56829L7.8853 9.2597C7.9221 10.0417 9.07796 10.0416 9.11471 9.25965L9.33509 4.56927C9.34555 4.33877 9.26107 4.11508 9.10153 3.94975C8.99591 3.84029 8.86273 3.76201 8.71652 3.72278L8.57519 3.69912ZM7.73077 11.5349C7.73077 11.9597 8.07516 12.3041 8.5 12.3041C8.92483 12.3041 9.26923 11.9597 9.26923 11.5349C9.26923 11.11 8.92483 10.7656 8.5 10.7656C8.07516 10.7656 7.73077 11.11 7.73077 11.5349Z" fill="#BB5013"/>
</svg>
