<svg width="48" height="48" viewBox="0 0 48 48" fill="none" xmlns="http://www.w3.org/2000/svg">
<circle cx="24" cy="24" r="24" fill="#B07B8B"/>
<path fill-rule="evenodd" clip-rule="evenodd" d="M23.96 15C19.012 15 15 19.012 15 23.96C15 27.628 17.208 30.78 20.364 32.168C20.34 31.544 20.36 30.792 20.52 30.112C20.692 29.384 21.672 25.228 21.672 25.228C21.672 25.228 21.384 24.656 21.384 23.812C21.384 22.484 22.152 21.492 23.112 21.492C23.928 21.492 24.32 22.104 24.32 22.836C24.32 23.656 23.796 24.88 23.528 26.016C23.304 26.968 24.004 27.74 24.944 27.74C26.64 27.74 27.784 25.56 27.784 22.976C27.784 21.012 26.46 19.544 24.056 19.544C21.34 19.544 19.644 21.572 19.644 23.836C19.644 24.616 19.876 25.168 20.236 25.592C20.4 25.788 20.424 25.868 20.364 26.092C20.32 26.256 20.224 26.652 20.18 26.812C20.12 27.04 19.936 27.12 19.732 27.036C18.48 26.524 17.896 25.156 17.896 23.612C17.896 21.068 20.044 18.016 24.3 18.016C27.72 18.016 29.972 20.492 29.972 23.148C29.972 26.664 28.016 29.288 25.136 29.288C24.168 29.288 23.26 28.764 22.948 28.172C22.948 28.172 22.428 30.236 22.316 30.636C22.128 31.328 21.756 32.016 21.416 32.556C22.2408 32.7993 23.0961 32.9232 23.956 32.924C28.904 32.924 32.916 28.912 32.916 23.964C32.916 19.016 28.908 15 23.96 15Z" fill="white"/>
</svg>
