<svg width="19" height="20" viewBox="0 0 19 20" fill="none" xmlns="http://www.w3.org/2000/svg">
<g clip-path="url(#clip0_983_7566)">
<path fill-rule="evenodd" clip-rule="evenodd" d="M9.27866 19.037H9.72404C10.1073 18.9432 10.4672 18.8004 10.7274 18.4877C10.8399 18.3494 10.9374 18.1994 11.0182 18.0404C11.0657 17.949 11.1138 17.9192 11.2135 17.9194C11.8481 17.9208 12.4828 17.9212 13.1174 17.9216H13.1197C13.9532 17.9221 14.7868 17.9226 15.6204 17.9252C15.6793 17.9254 15.7707 17.9645 15.792 18.0108C16.0457 18.563 16.4673 18.8947 17.0601 19.0131C17.0776 19.0189 17.0943 19.027 17.1098 19.037H17.5181C17.8516 18.9618 18.1718 18.8575 18.4292 18.6169C18.9237 18.1545 19.1124 17.5906 18.9342 16.9349C18.748 16.2496 18.2865 15.8313 17.5849 15.7231C16.8096 15.6034 16.1406 15.9774 15.8159 16.6804C15.7742 16.7707 15.7309 16.809 15.626 16.8088C14.1545 16.8051 12.683 16.805 11.2115 16.8085C11.109 16.8087 11.0617 16.7766 11.0207 16.6826C10.8616 16.3079 10.5651 16.0085 10.192 15.8457C10.0948 15.8018 10.0529 15.755 10.0552 15.6434C10.0607 15.3812 10.0598 15.1188 10.0588 14.8507V14.8507V14.8507V14.8506V14.8506V14.8506V14.8505C10.0585 14.7462 10.0581 14.641 10.0581 14.5346C10.173 14.527 10.2867 14.5204 10.3995 14.5139H10.3995H10.3995L10.3996 14.5139L10.3997 14.5139L10.3997 14.5139C10.6434 14.4997 10.8827 14.4859 11.1212 14.4633C12.1814 14.3631 13.2342 14.2116 14.2227 13.7928C14.5534 13.6526 14.8645 13.4496 15.1552 13.2354C15.4809 12.9955 15.6272 12.6473 15.6269 12.2338C15.6222 8.92619 15.6225 5.61861 15.6278 2.31103C15.6288 1.73343 15.3153 1.36677 14.8707 1.07588C14.271 0.683578 13.5942 0.491654 12.905 0.337556C12.0703 0.15093 11.2229 0.0646634 10.3696 0.0281186C10.3154 0.0257979 10.2614 0.0180347 10.2075 0.0102711L10.2075 0.0102705L10.2075 0.01027C10.1824 0.00666502 10.1574 0.00306007 10.1323 0H8.8704C8.72825 0.0116751 8.58599 0.0223629 8.44374 0.0330507C8.13058 0.0565787 7.81742 0.0801066 7.5054 0.114167C6.45777 0.228531 5.42348 0.4081 4.4695 0.886411C4.23405 1.0089 4.01333 1.15781 3.8116 1.33027C3.51675 1.57581 3.37575 1.90292 3.37605 2.29457C3.37955 5.60324 3.37939 8.9119 3.37557 12.2206C3.37492 12.7859 3.67314 13.1604 4.11213 13.4518C4.67218 13.8236 5.30564 14.0109 5.95107 14.1632C6.75868 14.3482 7.58111 14.4611 8.40868 14.5006C8.52554 14.5071 8.64236 14.5141 8.76487 14.5215H8.76488L8.94428 14.5322L8.94454 14.7964V14.7965C8.945 15.1037 8.94545 15.4064 8.94025 15.709C8.92951 15.7588 8.89653 15.8009 8.85076 15.8234C8.45418 15.9948 8.13752 16.3104 7.96486 16.7065C7.93341 16.7594 7.87911 16.7947 7.81796 16.8019C6.32741 16.8076 4.83688 16.8072 3.34636 16.801C3.29461 16.8007 3.22034 16.7368 3.19497 16.684C2.7425 15.7424 1.67825 15.4121 0.785854 15.9532C0.37457 16.2026 0.130398 16.5813 0.0333345 17.0539C0.0274621 17.0825 0.0192999 17.1106 0.0111377 17.1387L0.0111368 17.1387C0.0073482 17.1518 0.00355961 17.1648 0 17.1779V17.5497C0.0718621 17.8573 0.163479 18.1543 0.37075 18.405C0.646055 18.7379 0.990124 18.944 1.4173 19.0102C1.44067 19.0165 1.46325 19.0255 1.48459 19.037H1.89285C2.27614 18.9432 2.63604 18.8004 2.89618 18.4877C3.00874 18.3494 3.10623 18.1994 3.18698 18.0404C3.23447 17.949 3.28266 17.9192 3.38228 17.9194C4.0171 17.9208 4.65193 17.9212 5.28675 17.9216C6.12091 17.9221 6.95507 17.9226 7.78922 17.9252C7.84815 17.9254 7.9395 17.9645 7.96078 18.0108C8.21451 18.563 8.63612 18.8947 9.22888 19.0131C9.24641 19.019 9.26313 19.027 9.27866 19.037ZM9.50239 11.1462C11.2066 11.1458 12.8976 11.0012 14.5118 10.2975C14.5118 10.4539 14.5121 10.6086 14.5124 10.762L14.5124 10.7628V10.7631C14.5133 11.2515 14.5142 11.7273 14.5057 12.2029C14.5042 12.285 14.4384 12.3896 14.3705 12.443C13.9471 12.7759 13.4413 12.9237 12.9293 13.0451C11.3321 13.4237 9.71398 13.488 8.08315 13.3572C7.14394 13.2819 6.21593 13.1461 5.32933 12.8147C5.10475 12.7308 4.89556 12.6016 4.68909 12.4741L4.61608 12.429C4.54786 12.3796 4.50423 12.3033 4.49633 12.2194C4.48919 11.7333 4.48986 11.247 4.49055 10.7492C4.49076 10.6003 4.49097 10.4503 4.49097 10.299C6.10021 10.9997 7.79454 11.1467 9.50239 11.1462ZM14.5117 3.60482C12.8893 4.31007 11.1978 4.45403 9.49313 4.45346C7.78925 4.4529 6.09865 4.30696 4.49087 3.60521C4.49087 3.76599 4.49436 3.92529 4.49783 4.08331C4.5057 4.44282 4.51344 4.79576 4.47959 5.14465C4.43692 5.58454 4.64661 5.79435 4.99558 5.94741C5.01078 5.95407 5.02584 5.96105 5.0409 5.96802L5.04093 5.96804C5.05388 5.97403 5.06683 5.98003 5.07987 5.98583C5.85137 6.32909 6.67305 6.48054 7.50159 6.57294C9.36957 6.78126 11.2297 6.74108 13.0642 6.28182C13.526 6.1662 13.9817 6.02207 14.3634 5.7192C14.4291 5.66706 14.5039 5.5755 14.5052 5.50089C14.5139 5.02148 14.5131 4.5419 14.5122 4.05304V4.05301V4.05297V4.05294V4.05291V4.05288C14.5119 3.90446 14.5117 3.7552 14.5117 3.60482ZM9.50222 7.79986C11.2064 7.79943 12.8975 7.65489 14.5118 6.95112C14.5118 7.10479 14.5121 7.25681 14.5124 7.40758V7.40819V7.40879V7.40939V7.41V7.4101C14.5133 7.88822 14.5142 8.35379 14.5057 8.81919C14.5041 8.90134 14.4385 9.00598 14.3706 9.05939C13.9473 9.39235 13.4415 9.54015 12.9295 9.66154C11.3323 10.0402 9.71415 10.1044 8.08332 9.97367C7.1441 9.89835 6.2161 9.76259 5.32949 9.43128C5.10494 9.34737 4.89577 9.21819 4.68932 9.09069L4.68931 9.09068L4.6162 9.04563C4.54796 8.99626 4.50429 8.91989 4.49634 8.83604C4.48915 8.36028 4.48984 7.8844 4.49054 7.39694V7.39693V7.39692V7.39692V7.39691L4.49054 7.39612C4.49076 7.24942 4.49097 7.10168 4.49097 6.95257C6.10016 7.65329 7.79443 7.80029 9.50222 7.79986ZM9.4454 3.34596C10.7042 3.33464 11.9041 3.24027 13.0781 2.93327C13.5326 2.81442 13.9808 2.67103 14.363 2.3793C14.5306 2.25135 14.5382 2.19556 14.355 2.08226C14.1357 1.94657 13.9102 1.80986 13.6699 1.72105C12.7822 1.39293 11.8546 1.25543 10.9152 1.1804C9.28415 1.05011 7.66587 1.11483 6.06864 1.49407C5.56897 1.6127 5.07716 1.75909 4.65525 2.07229C4.46635 2.21251 4.4554 2.2717 4.66344 2.38876C4.95738 2.55416 5.25926 2.72081 5.57808 2.82367C6.85035 3.23413 8.16903 3.32641 9.4454 3.34596ZM2.18649 17.5734C2.10169 17.7819 1.89958 17.9188 1.67448 17.9201C1.36865 17.9195 1.11972 17.6739 1.11485 17.3682C1.1131 17.1431 1.24717 16.9391 1.45451 16.8514C1.66184 16.7638 1.90157 16.8097 2.06183 16.9678C2.2221 17.1258 2.2713 17.3649 2.18649 17.5734ZM9.50615 17.9201C9.73125 17.9186 9.93324 17.7816 10.0179 17.573C10.1025 17.3644 10.0531 17.1253 9.89268 16.9674C9.73228 16.8095 9.49251 16.7638 9.28525 16.8516C9.07799 16.9394 8.9441 17.1435 8.94604 17.3686C8.9512 17.6744 9.20032 17.9197 9.50615 17.9201ZM17.3299 17.9181C17.0233 17.9167 16.7759 17.667 16.7772 17.3605C16.7815 17.0547 17.0301 16.8087 17.3359 16.8075C17.6424 16.8094 17.8895 17.0593 17.8879 17.3658C17.8862 17.6724 17.6364 17.9196 17.3299 17.9181Z" fill="#3C3C3C"/>
</g>
<defs>
<clipPath id="clip0_983_7566">
<rect width="19" height="19.037" fill="white"/>
</clipPath>
</defs>
</svg>
