<svg width="20" height="24" viewBox="0 0 20 24" fill="none" xmlns="http://www.w3.org/2000/svg">
<path fill-rule="evenodd" clip-rule="evenodd" d="M15.5312 17.5C15.25 17.5 15.0625 17.6833 15.0625 17.9583V19.3333H1.9375V2.375C1.9375 2.1 2.125 1.91667 2.40625 1.91667H5.6875V2.375C5.6875 3.10833 6.34375 3.75 7.09375 3.75H9.90625C10.6562 3.75 11.3125 3.10833 11.3125 2.375V1.91667H14.5938C14.875 1.91667 15.0625 2.1 15.0625 2.375V3.29167C15.0625 3.56667 15.25 3.75 15.5312 3.75C15.8125 3.75 16 3.56667 16 3.29167V2.375C16 1.64167 15.3438 1 14.5938 1H2.40625C1.65625 1 1 1.64167 1 2.375V21.625C1 22.3583 1.65625 23 2.40625 23H14.5938C15.3438 23 16 22.3583 16 21.625V17.9583C16 17.6833 15.8125 17.5 15.5312 17.5ZM6.625 1.91667H10.375V2.375C10.375 2.65 10.1875 2.83333 9.90625 2.83333H7.09375C6.8125 2.83333 6.625 2.65 6.625 2.375V1.91667ZM14.5938 22.0833C14.875 22.0833 15.0625 21.9 15.0625 21.625V20.25H1.9375V21.625C1.9375 21.9 2.125 22.0833 2.40625 22.0833H14.5938Z" fill="#3C3C3C"/>
<path d="M15.0625 19.3333V19.4833H15.2125V19.3333H15.0625ZM1.9375 19.3333H1.7875V19.4833H1.9375V19.3333ZM5.6875 1.91667H5.8375V1.76667H5.6875V1.91667ZM11.3125 1.91667V1.76667H11.1625V1.91667H11.3125ZM10.375 1.91667H10.525V1.76667H10.375V1.91667ZM6.625 1.91667V1.76667H6.475V1.91667H6.625ZM15.0625 20.25H15.2125V20.1H15.0625V20.25ZM1.9375 20.25V20.1H1.7875V20.25H1.9375ZM15.2125 17.9583C15.2125 17.8559 15.2467 17.7818 15.2963 17.7333C15.3462 17.6845 15.4237 17.65 15.5312 17.65V17.35C15.3575 17.35 15.2007 17.4072 15.0865 17.5188C14.9721 17.6307 14.9125 17.7857 14.9125 17.9583H15.2125ZM15.2125 19.3333V17.9583H14.9125V19.3333H15.2125ZM1.9375 19.4833H15.0625V19.1833H1.9375V19.4833ZM1.7875 2.375V19.3333H2.0875V2.375H1.7875ZM2.40625 1.76667C2.23254 1.76667 2.07568 1.82385 1.96154 1.93546C1.84709 2.04736 1.7875 2.20239 1.7875 2.375H2.0875C2.0875 2.27261 2.12166 2.19847 2.17127 2.14996C2.22119 2.10115 2.29871 2.06667 2.40625 2.06667V1.76667ZM5.6875 1.76667H2.40625V2.06667H5.6875V1.76667ZM5.8375 2.375V1.91667H5.5375V2.375H5.8375ZM7.09375 3.6C6.4234 3.6 5.8375 3.02233 5.8375 2.375H5.5375C5.5375 3.19434 6.2641 3.9 7.09375 3.9V3.6ZM9.90625 3.6H7.09375V3.9H9.90625V3.6ZM11.1625 2.375C11.1625 3.02233 10.5766 3.6 9.90625 3.6V3.9C10.7359 3.9 11.4625 3.19434 11.4625 2.375H11.1625ZM11.1625 1.91667V2.375H11.4625V1.91667H11.1625ZM14.5938 1.76667H11.3125V2.06667H14.5938V1.76667ZM15.2125 2.375C15.2125 2.20239 15.1529 2.04736 15.0385 1.93546C14.9243 1.82385 14.7675 1.76667 14.5938 1.76667V2.06667C14.7013 2.06667 14.7788 2.10115 14.8287 2.14996C14.8783 2.19847 14.9125 2.27261 14.9125 2.375H15.2125ZM15.2125 3.29167V2.375H14.9125V3.29167H15.2125ZM15.5312 3.6C15.4237 3.6 15.3462 3.56552 15.2963 3.51671C15.2467 3.46819 15.2125 3.39405 15.2125 3.29167H14.9125C14.9125 3.46428 14.9721 3.61931 15.0865 3.73121C15.2007 3.84282 15.3575 3.9 15.5312 3.9V3.6ZM15.85 3.29167C15.85 3.39405 15.8158 3.46819 15.7662 3.51671C15.7163 3.56552 15.6388 3.6 15.5312 3.6V3.9C15.705 3.9 15.8618 3.84282 15.976 3.73121C16.0904 3.61931 16.15 3.46428 16.15 3.29167H15.85ZM15.85 2.375V3.29167H16.15V2.375H15.85ZM14.5938 1.15C15.2641 1.15 15.85 1.72767 15.85 2.375H16.15C16.15 1.55566 15.4234 0.85 14.5938 0.85V1.15ZM2.40625 1.15H14.5938V0.85H2.40625V1.15ZM1.15 2.375C1.15 1.72767 1.7359 1.15 2.40625 1.15V0.85C1.5766 0.85 0.85 1.55566 0.85 2.375H1.15ZM1.15 21.625V2.375H0.85V21.625H1.15ZM2.40625 22.85C1.7359 22.85 1.15 22.2723 1.15 21.625H0.85C0.85 22.4443 1.5766 23.15 2.40625 23.15V22.85ZM14.5938 22.85H2.40625V23.15H14.5938V22.85ZM15.85 21.625C15.85 22.2723 15.2641 22.85 14.5938 22.85V23.15C15.4234 23.15 16.15 22.4443 16.15 21.625H15.85ZM15.85 17.9583V21.625H16.15V17.9583H15.85ZM15.5312 17.65C15.6388 17.65 15.7163 17.6845 15.7662 17.7333C15.8158 17.7818 15.85 17.8559 15.85 17.9583H16.15C16.15 17.7857 16.0904 17.6307 15.976 17.5188C15.8618 17.4072 15.705 17.35 15.5312 17.35V17.65ZM10.375 1.76667H6.625V2.06667H10.375V1.76667ZM10.525 2.375V1.91667H10.225V2.375H10.525ZM9.90625 2.98333C10.08 2.98333 10.2368 2.92615 10.351 2.81454C10.4654 2.70264 10.525 2.54761 10.525 2.375H10.225C10.225 2.47739 10.1908 2.55153 10.1412 2.60004C10.0913 2.64885 10.0138 2.68333 9.90625 2.68333V2.98333ZM7.09375 2.98333H9.90625V2.68333H7.09375V2.98333ZM6.475 2.375C6.475 2.54761 6.53459 2.70264 6.64904 2.81454C6.76318 2.92615 6.92004 2.98333 7.09375 2.98333V2.68333C6.98621 2.68333 6.90869 2.64885 6.85877 2.60004C6.80916 2.55153 6.775 2.47739 6.775 2.375H6.475ZM6.475 1.91667V2.375H6.775V1.91667H6.475ZM14.9125 21.625C14.9125 21.7274 14.8783 21.8015 14.8287 21.85C14.7788 21.8989 14.7013 21.9333 14.5938 21.9333V22.2333C14.7675 22.2333 14.9243 22.1761 15.0385 22.0645C15.1529 21.9526 15.2125 21.7976 15.2125 21.625H14.9125ZM14.9125 20.25V21.625H15.2125V20.25H14.9125ZM1.9375 20.4H15.0625V20.1H1.9375V20.4ZM2.0875 21.625V20.25H1.7875V21.625H2.0875ZM2.40625 21.9333C2.29871 21.9333 2.22119 21.8989 2.17127 21.85C2.12166 21.8015 2.0875 21.7274 2.0875 21.625H1.7875C1.7875 21.7976 1.84709 21.9526 1.96154 22.0645C2.07568 22.1761 2.23254 22.2333 2.40625 22.2333V21.9333ZM14.5938 21.9333H2.40625V22.2333H14.5938V21.9333Z" fill="#3C3C3C"/>
<path fill-rule="evenodd" clip-rule="evenodd" d="M18.5417 14.2308H18.0833V11.4615C18.0833 9.61538 16.9833 7.95385 15.3333 7.21538V6.38462C15.3333 5.64615 14.6917 5 13.9583 5H13.0417C12.3083 5 11.6667 5.64615 11.6667 6.38462V7.21538C11.1167 7.4 10.6583 7.76923 10.2917 8.13846C9.375 9.06154 8.91667 10.2615 8.91667 11.4615V14.2308H8.45833C8.18333 14.2308 8 14.4154 8 14.6923C8 14.9692 8.18333 15.1538 8.45833 15.1538H11.6667C11.6667 16.1692 12.4917 17 13.5 17C14.5083 17 15.3333 16.1692 15.3333 15.1538H18.5417C18.8167 15.1538 19 14.9692 19 14.6923C19 14.4154 18.8167 14.2308 18.5417 14.2308ZM13.5 16.0769C12.95 16.0769 12.5833 15.7077 12.5833 15.1538H14.4167C14.4167 15.7077 14.05 16.0769 13.5 16.0769ZM9.83333 14.2308H17.1667V11.4615C17.1667 9.89231 16.1583 8.50769 14.6917 8.04615C14.5083 7.95385 14.4167 7.76923 14.4167 7.58462V6.38462C14.4167 6.10769 14.2333 5.92308 13.9583 5.92308H13.0417C12.7667 5.92308 12.5833 6.10769 12.5833 6.38462V7.58462C12.5833 7.76923 12.4917 7.95385 12.3083 8.04615C11.7583 8.13846 11.3 8.50769 10.9333 8.87692C10.2 9.52308 9.83333 10.4462 9.83333 11.4615V14.2308Z" fill="#3C3C3C"/>
<path d="M18.0833 14.2308H17.9333V14.3808H18.0833V14.2308ZM15.3333 7.21538H15.1833V7.31259L15.2721 7.3523L15.3333 7.21538ZM11.6667 7.21538L11.7144 7.35759L11.8167 7.32326V7.21538H11.6667ZM10.2917 8.13846L10.3981 8.24416L10.2917 8.13846ZM8.91667 14.2308V14.3808H9.06667V14.2308H8.91667ZM11.6667 15.1538H11.8167V15.0038H11.6667V15.1538ZM15.3333 15.1538V15.0038H15.1833V15.1538H15.3333ZM12.5833 15.1538V15.0038H12.4333V15.1538H12.5833ZM14.4167 15.1538H14.5667V15.0038H14.4167V15.1538ZM17.1667 14.2308V14.3808H17.3167V14.2308H17.1667ZM9.83333 14.2308H9.68333V14.3808H9.83333V14.2308ZM14.6917 8.04615L14.6242 8.18013L14.6351 8.18559L14.6466 8.18924L14.6917 8.04615ZM12.3083 8.04615L12.3332 8.19409L12.3555 8.19033L12.3758 8.18013L12.3083 8.04615ZM10.9333 8.87692L11.0327 8.98972L11.0398 8.98262L10.9333 8.87692ZM18.0833 14.3808H18.5417V14.0808H18.0833V14.3808ZM17.9333 11.4615V14.2308H18.2333V11.4615H17.9333ZM15.2721 7.3523C16.8686 8.06685 17.9333 9.67513 17.9333 11.4615H18.2333C18.2333 9.55563 17.098 7.84084 15.3946 7.07847L15.2721 7.3523ZM15.1833 6.38462V7.21538H15.4833V6.38462H15.1833ZM13.9583 5.15C14.6078 5.15 15.1833 5.72801 15.1833 6.38462H15.4833C15.4833 5.5643 14.7755 4.85 13.9583 4.85V5.15ZM13.0417 5.15H13.9583V4.85H13.0417V5.15ZM11.8167 6.38462C11.8167 5.72801 12.3922 5.15 13.0417 5.15V4.85C12.2245 4.85 11.5167 5.5643 11.5167 6.38462H11.8167ZM11.8167 7.21538V6.38462H11.5167V7.21538H11.8167ZM10.3981 8.24416C10.7577 7.88208 11.1964 7.53146 11.7144 7.35759L11.6189 7.07318C11.0369 7.26854 10.559 7.65639 10.1852 8.03277L10.3981 8.24416ZM9.06667 11.4615C9.06667 10.2999 9.51023 9.13824 10.3981 8.24416L10.1852 8.03277C9.23977 8.98484 8.76667 10.2232 8.76667 11.4615H9.06667ZM9.06667 14.2308V11.4615H8.76667V14.2308H9.06667ZM8.45833 14.3808H8.91667V14.0808H8.45833V14.3808ZM8.15 14.6923C8.15 14.5876 8.18403 14.5122 8.23248 14.4634C8.28083 14.4147 8.35524 14.3808 8.45833 14.3808V14.0808C8.28643 14.0808 8.13167 14.1392 8.01961 14.252C7.90764 14.3647 7.85 14.5201 7.85 14.6923H8.15ZM8.45833 15.0038C8.35524 15.0038 8.28083 14.9699 8.23248 14.9212C8.18403 14.8724 8.15 14.797 8.15 14.6923H7.85C7.85 14.8645 7.90764 15.0199 8.01961 15.1326C8.13167 15.2455 8.28643 15.3038 8.45833 15.3038V15.0038ZM11.6667 15.0038H8.45833V15.3038H11.6667V15.0038ZM13.5 16.85C12.5755 16.85 11.8167 16.0874 11.8167 15.1538H11.5167C11.5167 16.2511 12.4078 17.15 13.5 17.15V16.85ZM15.1833 15.1538C15.1833 16.0874 14.4245 16.85 13.5 16.85V17.15C14.5922 17.15 15.4833 16.2511 15.4833 15.1538H15.1833ZM18.5417 15.0038H15.3333V15.3038H18.5417V15.0038ZM18.85 14.6923C18.85 14.797 18.816 14.8724 18.7675 14.9212C18.7192 14.9699 18.6448 15.0038 18.5417 15.0038V15.3038C18.7136 15.3038 18.8683 15.2455 18.9804 15.1326C19.0924 15.0199 19.15 14.8645 19.15 14.6923H18.85ZM18.5417 14.3808C18.6448 14.3808 18.7192 14.4147 18.7675 14.4634C18.816 14.5122 18.85 14.5876 18.85 14.6923H19.15C19.15 14.5201 19.0924 14.3647 18.9804 14.252C18.8683 14.1392 18.7136 14.0808 18.5417 14.0808V14.3808ZM12.4333 15.1538C12.4333 15.4645 12.5368 15.7353 12.729 15.9288C12.9212 16.1224 13.1906 16.2269 13.5 16.2269V15.9269C13.2594 15.9269 13.0704 15.8468 12.9419 15.7174C12.8132 15.5878 12.7333 15.397 12.7333 15.1538H12.4333ZM14.4167 15.0038H12.5833V15.3038H14.4167V15.0038ZM13.5 16.2269C13.8094 16.2269 14.0788 16.1224 14.271 15.9288C14.4632 15.7353 14.5667 15.4645 14.5667 15.1538H14.2667C14.2667 15.397 14.1868 15.5878 14.0581 15.7174C13.9296 15.8468 13.7406 15.9269 13.5 15.9269V16.2269ZM17.1667 14.0808H9.83333V14.3808H17.1667V14.0808ZM17.0167 11.4615V14.2308H17.3167V11.4615H17.0167ZM14.6466 8.18924C16.0496 8.63073 17.0167 9.95651 17.0167 11.4615H17.3167C17.3167 9.8281 16.2671 8.38466 14.7367 7.90307L14.6466 8.18924ZM14.2667 7.58462C14.2667 7.81719 14.3829 8.05865 14.6242 8.18013L14.7591 7.91218C14.6337 7.84905 14.5667 7.72127 14.5667 7.58462H14.2667ZM14.2667 6.38462V7.58462H14.5667V6.38462H14.2667ZM13.9583 6.07308C14.0614 6.07308 14.1358 6.107 14.1842 6.1557C14.2326 6.20448 14.2667 6.27993 14.2667 6.38462H14.5667C14.5667 6.21238 14.509 6.05705 14.3971 5.9443C14.285 5.83146 14.1302 5.77308 13.9583 5.77308V6.07308ZM13.0417 6.07308H13.9583V5.77308H13.0417V6.07308ZM12.7333 6.38462C12.7333 6.27993 12.7674 6.20448 12.8158 6.1557C12.8642 6.107 12.9386 6.07308 13.0417 6.07308V5.77308C12.8698 5.77308 12.715 5.83146 12.6029 5.9443C12.491 6.05705 12.4333 6.21238 12.4333 6.38462H12.7333ZM12.7333 7.58462V6.38462H12.4333V7.58462H12.7333ZM12.3758 8.18013C12.6171 8.05865 12.7333 7.81719 12.7333 7.58462H12.4333C12.4333 7.72127 12.3663 7.84905 12.2409 7.91218L12.3758 8.18013ZM11.0398 8.98262C11.4018 8.61807 11.8319 8.27822 12.3332 8.19409L12.2835 7.89822C11.6848 7.9987 11.1982 8.39731 10.8269 8.77123L11.0398 8.98262ZM9.98333 11.4615C9.98333 10.4828 10.336 9.60318 11.0325 8.98947L10.8342 8.76438C10.064 9.44297 9.68333 10.4095 9.68333 11.4615H9.98333ZM9.98333 14.2308V11.4615H9.68333V14.2308H9.98333Z" fill="#3C3C3C"/>
</svg>
