<svg width="26" height="24" viewBox="0 0 26 24" fill="none" xmlns="http://www.w3.org/2000/svg">
<path fill-rule="evenodd" clip-rule="evenodd" d="M13.1347 1.69616L13.128 1.70549L13.1254 1.70016L4.60004 9.86278V22.1895H8.86671V15.7895C8.86671 14.6767 9.71866 13.763 10.8059 13.6649L11 13.6562H15.2667C16.3795 13.6562 17.2932 14.5081 17.3913 15.5953L17.4 15.7895V22.1895H21.6667V9.86337L13.1347 1.69616ZM1.77679 12.5659L2.89337 11.4968V22.1895L2.90219 22.364C2.98958 23.2246 3.71639 23.8962 4.60004 23.8962H9.72004L9.84614 23.8869C10.2576 23.826 10.5734 23.4713 10.5734 23.0428V15.7895L10.5846 15.6917C10.6289 15.5032 10.7981 15.3628 11 15.3628H15.2667L15.3645 15.3741C15.553 15.4183 15.6934 15.5875 15.6934 15.7895V23.0428L15.7026 23.1689C15.7636 23.5804 16.1183 23.8962 16.5467 23.8962H21.6667L21.8412 23.8874C22.7018 23.8 23.3734 23.0732 23.3734 22.1895V11.4971L24.49 12.5659L24.5977 12.6536C24.9363 12.8862 25.4032 12.846 25.6965 12.5396C26.0224 12.1991 26.0106 11.659 25.6701 11.3331L21.6667 7.50078V1.70949L21.6575 1.58339C21.5965 1.1719 21.2418 0.85616 20.8134 0.85616H18.2534L18.1273 0.865412C17.7158 0.926361 17.4 1.28105 17.4 1.70949V3.41651L14.3043 0.453064L14.1816 0.339633C13.5745 -0.151943 12.5019 -0.114141 11.9349 0.480727L0.59663 11.3331L0.504365 11.4368C0.257203 11.765 0.276977 12.2332 0.570279 12.5396L0.674061 12.6318C1.00221 12.879 1.47039 12.8592 1.77679 12.5659ZM19.1067 5.05022L19.96 5.86707V2.56283H19.1067V5.05022Z" fill="#3C3C3C"/>
</svg>
