<svg width="17" height="18" viewBox="0 0 17 18" fill="none" xmlns="http://www.w3.org/2000/svg">
<path fill-rule="evenodd" clip-rule="evenodd" d="M11.4409 0C11.7667 0.0775316 12.0872 0.167912 12.3643 0.368073C12.9627 0.800453 13.2733 1.38566 13.2745 2.12371C13.2781 4.38675 13.2786 6.64979 13.2759 8.91285V9.12107C13.3559 9.14153 13.4354 9.16071 13.5143 9.17977L13.5145 9.1798C13.6835 9.22059 13.8501 9.26077 14.0133 9.31153C15.705 9.83754 17.1896 11.56 16.9802 13.8345C16.7963 15.8312 15.2597 17.3807 13.4055 17.6717C11.8877 17.9099 10.5912 17.4621 9.52657 16.3546C9.44925 16.2635 9.33453 16.2128 9.2151 16.2168C6.87123 16.2208 4.52736 16.2217 2.18349 16.2196C0.908139 16.2195 0.00855756 15.3172 0.00848362 14.0374C0.0084194 12.9286 0.00948597 11.8198 0.0105525 10.711C0.0132678 7.88834 0.015983 5.06563 4.14023e-05 2.24303C-0.00670237 1.04897 0.811288 0.157132 1.79834 0.0223602C1.81479 0.0173196 1.83037 0.00977797 1.84453 0H11.4409ZM8.73545 15.1804C8.19687 13.8301 8.22838 12.52 8.95144 11.2692C9.67708 10.014 10.7936 9.31731 12.2366 9.11564V8.92107L12.2364 2.20205C12.2363 1.46929 11.8072 1.03947 11.0758 1.03942C8.12035 1.03918 5.1649 1.03918 2.20946 1.03941C1.47675 1.03946 1.04785 1.46792 1.04781 2.19992C1.04762 6.14244 1.04762 10.085 1.04782 14.0275C1.04786 14.7528 1.47347 15.1801 2.19648 15.1802C4.30917 15.1806 6.42185 15.1806 8.53453 15.1804L8.73545 15.1804ZM12.651 16.6977C10.8592 16.6822 9.3952 15.1981 9.40864 13.4106C9.41173 12.537 9.76323 11.7007 10.3852 11.0872C11.0072 10.4738 11.8482 10.1338 12.7218 10.1427C14.5234 10.1622 15.975 11.6335 15.9627 13.4274C15.9597 14.301 15.6085 15.1374 14.9869 15.7512C14.3653 16.3651 13.5246 16.7057 12.651 16.6977Z" fill="#3C3C3C"/>
<path d="M4.21841 5.49938C4.71487 5.49938 5.21134 5.49839 5.7078 5.49972C6.05442 5.50064 6.28047 5.70118 6.28418 6.0071C6.28797 6.31926 6.0581 6.53641 5.70673 6.53748C4.71381 6.54052 3.72089 6.54055 2.72796 6.53759C2.42132 6.5368 2.2028 6.36738 2.15754 6.10977C2.11008 5.86114 2.25219 5.61533 2.49133 5.53238C2.56839 5.50933 2.64862 5.49866 2.72903 5.50075C3.22548 5.49803 3.72195 5.49938 4.21841 5.49938Z" fill="#3C3C3C"/>
<path d="M4.21747 7.57868C4.7197 7.57869 5.22195 7.5771 5.72417 7.57925C6.05638 7.58068 6.28007 7.78544 6.28434 8.08545C6.2887 8.39183 6.06323 8.61475 5.72533 8.61619C4.72088 8.62049 3.71641 8.62058 2.71192 8.61646C2.41798 8.61549 2.20268 8.4423 2.15787 8.19026C2.10948 7.94167 2.25124 7.69531 2.49048 7.61222C2.56747 7.58893 2.64768 7.57807 2.72809 7.58006C3.22453 7.57729 3.721 7.57866 4.21747 7.57868Z" fill="#3C3C3C"/>
<path d="M4.21873 10.6961C3.71648 10.6961 3.2142 10.6996 2.71199 10.6949C2.39626 10.692 2.17267 10.4949 2.15293 10.2172C2.13029 9.89866 2.3561 9.66006 2.69323 9.65815C3.31092 9.65465 3.92864 9.65706 4.54635 9.65703C4.93891 9.65702 5.33148 9.65532 5.72403 9.65762C6.05631 9.65957 6.28001 9.86399 6.28427 10.1639C6.28863 10.4708 6.06325 10.6913 5.72546 10.6948C5.22326 10.7 4.72098 10.6962 4.21873 10.6961Z" fill="#3C3C3C"/>
<path d="M4.21861 11.7702C4.72086 11.7702 5.22312 11.7684 5.72535 11.7708C6.05721 11.7725 6.2807 11.9784 6.28434 12.2785C6.28806 12.5853 6.06184 12.8067 5.72423 12.808C4.71975 12.8116 3.71526 12.8116 2.71076 12.8081C2.4178 12.8072 2.20184 12.6334 2.15771 12.3811C2.10972 12.1324 2.25211 11.8863 2.49164 11.804C2.57437 11.7799 2.66038 11.7689 2.74652 11.7715C3.2372 11.7686 3.72791 11.7701 4.21861 11.7702Z" fill="#3C3C3C"/>
<path d="M4.21715 3.42144C4.71938 3.42144 5.22162 3.41999 5.72384 3.42195C6.05571 3.42324 6.27985 3.62801 6.2841 3.92783C6.28836 4.22784 6.06898 4.45568 5.74249 4.45768C4.72653 4.46388 3.71054 4.46391 2.69452 4.45775C2.36788 4.45581 2.14784 4.22876 2.15141 3.92925C2.15498 3.62971 2.37963 3.42333 2.71046 3.42198C3.21269 3.41992 3.71492 3.42144 4.21715 3.42144Z" fill="#3C3C3C"/>
<path d="M9.06295 3.42144C9.56518 3.42143 10.0674 3.42002 10.5696 3.42193C10.902 3.4232 11.127 3.6271 11.1322 3.92594C11.1375 4.22491 10.9172 4.45544 10.5921 4.45752C9.5761 4.46401 8.5601 4.46414 7.54407 4.45791C7.21662 4.45606 6.99629 4.23078 6.99905 3.93123C7.00181 3.63177 7.22704 3.42336 7.55625 3.42199C8.05848 3.41991 8.56072 3.42144 9.06295 3.42144Z" fill="#3C3C3C"/>
<path d="M9.06261 5.50023C9.55907 5.50021 10.0555 5.49929 10.552 5.50053C10.8992 5.50139 11.1267 5.7006 11.132 6.00481C11.1374 6.31623 10.9065 6.53706 10.5572 6.5382C9.55852 6.54148 8.55983 6.54145 7.56112 6.53811C7.29053 6.5373 7.10006 6.40338 7.02408 6.18036C6.95507 5.9778 7.00906 5.74334 7.18946 5.62294C7.29892 5.55166 7.42553 5.51113 7.55604 5.5056C8.05794 5.49269 8.56037 5.50025 9.06261 5.50023Z" fill="#3C3C3C"/>
<path d="M8.26054 7.57821C8.5026 7.57819 8.7447 7.57544 8.98671 7.57887C9.29844 7.58329 9.52534 7.79914 9.529 8.08888C9.53035 8.22658 9.47684 8.35915 9.38027 8.45731C9.28371 8.55548 9.15204 8.61117 9.01434 8.61208C8.51325 8.62446 8.01192 8.62449 7.51033 8.61218C7.36952 8.61344 7.23451 8.55616 7.13756 8.45403C7.0406 8.3519 6.99042 8.2141 6.99899 8.07354C7.00834 7.78852 7.22757 7.58343 7.53436 7.57894C7.77637 7.5754 8.01847 7.57823 8.26054 7.57821Z" fill="#3C3C3C"/>
<path d="M12.3823 13.7334C12.8239 13.1836 13.2483 12.6442 13.6878 12.1173C13.7805 12.01 13.9017 11.9312 14.0374 11.8899C14.2506 11.8288 14.4569 11.9396 14.5686 12.1245C14.6807 12.314 14.6626 12.5532 14.5235 12.7238C14.2671 13.0506 14.0046 13.3726 13.7447 13.6966C13.4703 14.0387 13.1975 14.3819 12.9211 14.7223C12.6874 15.0101 12.4215 15.0447 12.1195 14.8277C11.7401 14.555 11.3619 14.2808 10.9848 14.0049C10.7165 13.8082 10.6535 13.4919 10.8292 13.2493C11.0041 13.0077 11.3239 12.9718 11.5959 13.1659C11.8537 13.3497 12.1094 13.5363 12.3823 13.7334Z" fill="#3C3C3C"/>
</svg>
