<svg width="29" height="26" viewBox="0 0 29 26" fill="none" xmlns="http://www.w3.org/2000/svg">
<path fill-rule="evenodd" clip-rule="evenodd" d="M27.9899 15.9805C28.7858 13.7792 29.056 11.4865 28.9906 9.14614C28.9689 8.36564 28.897 7.58424 28.8025 6.8088C28.7227 6.15321 28.2819 5.83316 27.6365 5.92333C25.2547 6.25567 22.9494 7.00201 20.8247 8.12862C20.7537 8.16605 20.6832 8.20451 20.6127 8.24297L20.6126 8.24307C20.5497 8.27741 20.4867 8.31175 20.4234 8.34536C20.3957 8.35495 20.367 8.3617 20.3378 8.3655C20.3278 8.34318 20.317 8.32065 20.3061 8.29783C20.2824 8.2482 20.2581 8.19725 20.2392 8.14439C19.1876 5.21014 17.4966 2.68132 15.3474 0.445705C15.2326 0.326368 15.0931 0.230922 14.9535 0.135474C14.8886 0.0911159 14.8238 0.0467574 14.7614 0H14.2393C13.5656 0.405803 13.0822 1.00477 12.6016 1.60039L12.6015 1.60053L12.6014 1.60067L12.6013 1.6008C12.5256 1.69457 12.45 1.78825 12.3738 1.88108C10.8039 3.79207 9.53992 5.88387 8.73347 8.23504C8.71141 8.28556 8.68641 8.33473 8.65858 8.38232C8.62111 8.36286 8.5841 8.34387 8.54747 8.32508L8.54743 8.32505C8.47074 8.2857 8.39571 8.2472 8.32158 8.20706C6.15998 7.03489 3.80496 6.26155 1.36927 5.92408C0.722103 5.83299 0.277016 6.15318 0.197402 6.80397C-0.296519 10.8408 0.0637202 14.74 2.11241 18.3572C2.12983 18.3879 2.14529 18.4198 2.16223 18.4548C2.17066 18.4721 2.17946 18.4903 2.18905 18.5094L2.18341 18.5131C2.29197 18.6646 2.37337 18.8381 2.45484 19.0117C2.51108 19.1316 2.56736 19.2515 2.63262 19.3643C2.7001 19.481 2.77488 19.5912 2.85201 19.6995C2.90607 19.7458 2.95987 19.7926 3.0134 19.8397C3.08535 19.874 3.14407 19.931 3.18059 20.0018C3.18252 20.0058 3.1847 20.0095 3.18688 20.0132L3.18689 20.0132L3.19115 20.0206C3.21306 20.047 3.23445 20.0737 3.25582 20.1004L3.25586 20.1005C3.27154 20.1201 3.28722 20.1396 3.30307 20.1591L3.30642 20.1571C3.54548 20.3651 3.77753 20.5747 4.00725 20.7822L4.00731 20.7823L4.0074 20.7824L4.00743 20.7824L4.00755 20.7825L4.00761 20.7826C4.50269 21.2298 4.98693 21.6673 5.50717 22.0567C7.85649 23.8154 10.5457 24.785 13.3921 25.3984C14.4591 25.6283 15.463 25.4392 16.4784 25.1958C19.1374 24.5585 21.6263 23.5389 23.7914 21.8348C24.2324 21.4878 24.6446 21.1041 25.0696 20.7086L25.0698 20.7084C25.2617 20.5298 25.4562 20.3488 25.6571 20.1677C25.7349 20.0579 25.8185 19.9518 25.9048 19.8476C25.981 19.7554 26.0594 19.6646 26.1377 19.5738L26.1377 19.5738L26.1377 19.5737L26.1378 19.5737L26.1378 19.5737C26.3785 19.2947 26.6189 19.0162 26.7969 18.6991C26.8001 18.6917 26.8037 18.6845 26.8073 18.6772C26.8124 18.6319 26.8239 18.5875 26.8416 18.5455L26.8376 18.5431C26.9429 18.3187 27.0506 18.0981 27.1575 17.8791C27.3883 17.4063 27.6154 16.941 27.8069 16.4616C27.8708 16.3017 27.9317 16.1414 27.9899 15.9805L26.1969 19.3057L27.9899 15.9805ZM10.8881 22.6667C11.155 22.7712 11.4219 22.8757 11.6874 22.9833L11.7318 22.886C11.626 22.73 11.5186 22.5751 11.4112 22.4201L11.4112 22.4201L11.4112 22.4201C11.1789 22.0849 10.9466 21.7497 10.7307 21.4044C8.64949 18.0758 7.44593 14.5349 8.12388 10.5415C8.12412 10.4433 8.0778 10.3508 7.99903 10.2922C6.16429 9.16716 4.16658 8.46763 2.03747 8.01548C2.03088 8.08445 2.02354 8.15116 2.01637 8.21637L2.01637 8.21638C2.00138 8.35266 1.98711 8.48238 1.98193 8.61247C1.91054 10.0579 1.99622 11.5068 2.23747 12.9337C2.59699 14.95 3.27051 16.8371 4.55755 18.4635C5.78491 20.0145 7.3578 21.1215 9.13688 21.9413C9.71025 22.2055 10.2991 22.4361 10.888 22.6666L10.8881 22.6667ZM14.667 22.9609C14.6319 23.0023 14.5946 23.0419 14.5553 23.0794C14.5168 23.0998 14.4761 23.1159 14.434 23.1274C14.2775 22.9237 14.1177 22.7202 13.957 22.5156L13.957 22.5156L13.957 22.5155C13.6017 22.0631 13.2426 21.6058 12.9075 21.1315C11.6625 19.3694 10.6986 17.4705 10.1944 15.3574C9.56908 12.7362 9.94207 10.2212 11.0044 7.78249C11.8405 5.86326 12.9872 4.14134 14.3568 2.56347C14.4089 2.48892 14.4558 2.41091 14.4972 2.32999C14.6837 2.57365 14.8668 2.80801 15.0459 3.03726L15.0459 3.03729C15.4267 3.52464 15.7894 3.98888 16.1277 4.47029C17.4133 6.29993 18.3967 8.27316 18.868 10.4768C19.3986 12.9581 19.0289 15.3378 18.0473 17.6454C17.2144 19.6034 16.0525 21.3536 14.667 22.9609ZM20.5442 21.5945C22.8744 20.4032 24.7075 18.6901 25.7741 16.2521C26.8983 13.6825 27.1622 10.978 26.9861 8.20998C26.9757 8.14574 26.9595 8.08257 26.9378 8.02122C24.869 8.47025 22.9108 9.1526 21.0978 10.2271C20.8972 10.3459 20.8465 10.46 20.887 10.6906C21.1372 12.129 21.1293 13.6004 20.8637 15.036C20.4605 17.269 19.5783 19.3117 18.3824 21.226C18.1403 21.6134 17.8829 21.9913 17.6174 22.3811C17.4931 22.5635 17.367 22.7486 17.2399 22.9385C17.3443 22.9177 17.4474 22.8905 17.5485 22.8569C17.8513 22.7315 18.157 22.6115 18.4627 22.4914C19.1677 22.2146 19.8729 21.9377 20.5442 21.5945Z" fill="#3C3C3C"/>
</svg>
