<svg width="15" height="18" viewBox="0 0 15 18" fill="none" xmlns="http://www.w3.org/2000/svg">
<path d="M7.5 9C8.7364 9 9.80702 8.55654 10.6818 7.6816C11.5566 6.8068 12 5.73643 12 4.49986C12 3.26371 11.5566 2.1932 10.6816 1.31811C9.80673 0.443457 8.73625 0 7.5 0C6.26346 0 5.19313 0.443457 4.31836 1.31826C3.44359 2.19305 3 3.26357 3 4.49986C3 5.73643 3.44359 6.80695 4.3185 7.68174C5.19341 8.5564 6.26389 9 7.5 9Z" fill="white"/>
<path d="M14.9636 13.9775C14.9394 13.6383 14.8903 13.2682 14.818 12.8775C14.745 12.4838 14.651 12.1116 14.5386 11.7715C14.4224 11.4199 14.2644 11.0727 14.069 10.74C13.8663 10.3946 13.6282 10.0939 13.361 9.84647C13.0816 9.5876 12.7395 9.37947 12.3439 9.22766C11.9496 9.07664 11.5127 9.00013 11.0454 9.00013C10.8619 9.00013 10.6844 9.07305 10.3416 9.28915C10.1306 9.42237 9.88386 9.57645 9.60843 9.74686C9.37291 9.89216 9.05385 10.0283 8.65977 10.1516C8.27528 10.272 7.8849 10.3331 7.49959 10.3331C7.11428 10.3331 6.72403 10.272 6.33914 10.1516C5.94546 10.0284 5.62641 9.8923 5.39116 9.74699C5.11833 9.57817 4.87143 9.4241 4.65731 9.28902C4.31493 9.07292 4.1373 9 3.95376 9C3.48629 9 3.04955 9.07664 2.65546 9.22779C2.26014 9.37934 1.9179 9.58747 1.63821 9.84661C1.37114 10.0942 1.13288 10.3948 0.930419 10.74C0.735227 11.0727 0.577208 11.4197 0.460889 11.7716C0.348547 12.1117 0.254586 12.4838 0.181612 12.8775C0.109324 13.2677 0.0602173 13.6379 0.0359383 13.9779C0.0120709 14.311 0 14.6567 0 15.0059C0 15.9147 0.298343 16.6504 0.886662 17.193C1.46771 17.7284 2.23654 18 3.17149 18H11.8285C12.7635 18 13.532 17.7285 14.1132 17.193C14.7017 16.6508 15 15.915 15 15.0058C14.9999 14.655 14.9877 14.309 14.9636 13.9775Z" fill="white"/>
</svg>
