<svg width="48" height="48" viewBox="0 0 48 48" fill="none" xmlns="http://www.w3.org/2000/svg">
<circle cx="24" cy="24" r="24" fill="#B07B8B"/>
<path fill-rule="evenodd" clip-rule="evenodd" d="M34.046 19.3916C34.046 17.5916 32.722 16.1436 31.086 16.1436C28.87 16.04 26.61 16 24.3004 16H23.5804C21.2764 16 19.0124 16.04 16.7964 16.144C15.1644 16.144 13.8404 17.6 13.8404 19.4C13.7404 20.8236 13.698 22.2476 13.7004 23.6716C13.6964 25.0956 13.7418 26.5209 13.8364 27.9476C13.8364 29.7476 15.1604 31.2076 16.7924 31.2076C19.1204 31.3156 21.5084 31.3636 23.9364 31.3596C26.3684 31.3676 28.7498 31.3169 31.0804 31.2076C32.7164 31.2076 34.0404 29.7476 34.0404 27.9476C34.1364 26.5196 34.1804 25.0956 34.1764 23.6676C34.1855 22.2436 34.142 20.8183 34.046 19.3916ZM21.9805 27.5958V19.7358L27.7805 23.6638L21.9805 27.5958Z" fill="white"/>
</svg>
